<svg class="animated" id="freepik_stories-astronaut-suit" xmlns="http://www.w3.org/2000/svg" viewBox="0 0 500 500" version="1.1" xmlns:xlink="http://www.w3.org/1999/xlink" xmlns:svgjs="http://svgjs.com/svgjs"><style>svg#freepik_stories-astronaut-suit:not(.animated) .animable {opacity: 0;}svg#freepik_stories-astronaut-suit.animated #freepik--background-complete--inject-105 {animation: 1.5s Infinite  linear floating;animation-delay: 0s;}svg#freepik_stories-astronaut-suit.animated #freepik--Window--inject-105 {animation: 1.5s Infinite  linear floating;animation-delay: 1s;}svg#freepik_stories-astronaut-suit.animated #freepik--character-2--inject-105 {animation: 1.5s Infinite  linear floating;animation-delay: 0s;}svg#freepik_stories-astronaut-suit.animated #freepik--character-1--inject-105 {animation: 1.5s Infinite  linear floating;animation-delay: 0s;}            @keyframes floating {                0% {                    opacity: 1;                    transform: translateY(0px);                }                50% {                    transform: translateY(-10px);                }                100% {                    opacity: 1;                    transform: translateY(0px);                }            }        </style><g id="freepik--background-complete--inject-105" class="animable animator-active" style="transform-origin: 250px 228.23px;"><rect x="416.78" y="398.49" width="33.12" height="0.25" style="fill: rgb(235, 235, 235); transform-origin: 433.34px 398.615px;" id="eljz9jhkbsq0j" class="animable"></rect><rect x="322.53" y="401.21" width="8.69" height="0.25" style="fill: rgb(235, 235, 235); transform-origin: 326.875px 401.335px;" id="elvp6gmgfol5" class="animable"></rect><rect x="396.59" y="389.21" width="19.19" height="0.25" style="fill: rgb(235, 235, 235); transform-origin: 406.185px 389.335px;" id="elrxdyxqcxhwe" class="animable"></rect><rect x="52.46" y="390.89" width="43.19" height="0.25" style="fill: rgb(235, 235, 235); transform-origin: 74.055px 391.015px;" id="el9gk7vxxzv1" class="animable"></rect><rect x="104.56" y="390.89" width="6.33" height="0.25" style="fill: rgb(235, 235, 235); transform-origin: 107.725px 391.015px;" id="elpq5e7wiagv" class="animable"></rect><rect x="131.47" y="395.11" width="93.68" height="0.25" style="fill: rgb(235, 235, 235); transform-origin: 178.31px 395.235px;" id="elilekdjvbxh" class="animable"></rect><path d="M237,337.8H43.92a5.71,5.71,0,0,1-5.71-5.71V60.66A5.71,5.71,0,0,1,43.92,55H237a5.71,5.71,0,0,1,5.71,5.71V332.09A5.71,5.71,0,0,1,237,337.8ZM43.92,55.2a5.47,5.47,0,0,0-5.46,5.46V332.09a5.47,5.47,0,0,0,5.46,5.46H237a5.47,5.47,0,0,0,5.46-5.46V60.66A5.47,5.47,0,0,0,237,55.2Z" style="fill: rgb(235, 235, 235); transform-origin: 140.46px 196.4px;" id="el3jhhzfpmwjm" class="animable"></path><path d="M453.31,337.8H260.21a5.72,5.72,0,0,1-5.71-5.71V60.66A5.72,5.72,0,0,1,260.21,55h193.1A5.71,5.71,0,0,1,459,60.66V332.09A5.71,5.71,0,0,1,453.31,337.8ZM260.21,55.2a5.47,5.47,0,0,0-5.46,5.46V332.09a5.47,5.47,0,0,0,5.46,5.46h193.1a5.47,5.47,0,0,0,5.46-5.46V60.66a5.47,5.47,0,0,0-5.46-5.46Z" style="fill: rgb(235, 235, 235); transform-origin: 356.75px 196.4px;" id="ela8h7s5oxjau" class="animable"></path><rect y="382.4" width="500" height="0.25" style="fill: rgb(235, 235, 235); transform-origin: 250px 382.525px;" id="eltttdbxzk4zh" class="animable"></rect><polygon points="391.89 299.85 388.75 298.2 389.35 301.7 386.81 304.17 390.32 304.68 391.89 307.86 393.46 304.68 396.97 304.17 394.43 301.7 395.03 298.2 391.89 299.85" style="fill: rgb(255, 255, 255); transform-origin: 391.89px 303.03px;" id="el14h5abew6w3" class="animable"></polygon><g id="elmpu4qtgptti"><rect x="86.02" y="289.53" width="48.09" height="69.54" rx="12.06" style="fill: rgb(235, 235, 235); transform-origin: 110.065px 324.3px; transform: rotate(-22.58deg);" class="animable" id="elo7unk0adlr"></rect></g><g id="el1dyy6il5ho6"><rect x="61.58" y="299.69" width="48.08" height="69.54" rx="12.06" style="fill: rgb(245, 245, 245); transform-origin: 85.62px 334.46px; transform: rotate(-22.58deg);" class="animable" id="el5rb973k25ul"></rect></g><g id="elm8fzh2kkfem"><rect x="55.64" y="317.63" width="48.09" height="5.11" style="fill: rgb(235, 235, 235); transform-origin: 79.685px 320.185px; transform: rotate(-22.58deg);" class="animable" id="elzk2m7nbz06l"></rect></g><g id="el32pvcbia0fy"><rect x="100.87" y="303.32" width="26.47" height="5.11" style="fill: rgb(224, 224, 224); transform-origin: 114.105px 305.875px; transform: rotate(-22.58deg);" class="animable" id="elc693pikom6h"></rect></g><g id="elnbdudz58367"><rect x="66.68" y="344.18" width="48.09" height="5.11" style="fill: rgb(235, 235, 235); transform-origin: 90.725px 346.735px; transform: rotate(-22.58deg);" class="animable" id="el19chm16seaa"></rect></g><g id="el52iaw5w62g7"><rect x="111.91" y="329.87" width="26.47" height="5.11" style="fill: rgb(224, 224, 224); transform-origin: 125.145px 332.425px; transform: rotate(-22.58deg);" class="animable" id="elmgjn84f1lcg"></rect></g><g id="elp2edwis487j"><rect x="75.76" y="316.26" width="7.84" height="7.84" rx="2.55" style="fill: rgb(224, 224, 224); transform-origin: 79.68px 320.18px; transform: rotate(-22.58deg);" class="animable" id="elrb718bvpmaa"></rect></g><g id="eli3p00nmyvh"><rect x="86.8" y="342.82" width="7.84" height="7.84" rx="2.55" style="fill: rgb(224, 224, 224); transform-origin: 90.72px 346.74px; transform: rotate(-22.58deg);" class="animable" id="el1973xleh5tp"></rect></g><g id="elmoqa5i5bnj"><rect x="393.44" y="90.15" width="44.23" height="63.96" rx="12" style="fill: rgb(235, 235, 235); transform-origin: 415.555px 122.13px; transform: rotate(-10.23deg);" class="animable" id="elefadsk0ro6b"></rect></g><g id="eldlqjppj6tjp"><rect x="379.84" y="92.61" width="44.23" height="63.96" rx="12" style="fill: rgb(245, 245, 245); transform-origin: 401.955px 124.59px; transform: rotate(-10.23deg);" class="animable" id="el03pqpt5vrjoh"></rect></g><path d="M411,98.19h0a1.86,1.86,0,0,0-2.39,1.09l-7.06,18.85a1.86,1.86,0,0,1-3.14.56L385.19,103.5a1.86,1.86,0,0,0-2.62-.18h0a1.86,1.86,0,0,0-.18,2.62l15.84,18.23a1.85,1.85,0,0,1,.34,1.87l-8.47,22.62a1.86,1.86,0,0,0,1.09,2.39h0a1.86,1.86,0,0,0,2.39-1.09l7.06-18.85a1.85,1.85,0,0,1,3.14-.56L417,145.73a1.86,1.86,0,0,0,2.62.19h0a1.85,1.85,0,0,0,.18-2.62l-15.84-18.23a1.85,1.85,0,0,1-.34-1.87l8.47-22.62A1.85,1.85,0,0,0,411,98.19Z" style="fill: rgb(230, 230, 230); transform-origin: 401.097px 124.62px;" id="el197380ll9fk" class="animable"></path><g id="elaoviete9gat"><path d="M370.46,336.12h31.28a0,0,0,0,1,0,0V379a0,0,0,0,1,0,0H370.46A7.06,7.06,0,0,1,363.4,372V343.19A7.06,7.06,0,0,1,370.46,336.12Z" style="fill: rgb(230, 230, 230); transform-origin: 382.57px 357.56px; transform: rotate(-14.27deg);" class="animable" id="eltec95dhbcyb"></path></g><g id="elmn3btn508cf"><path d="M400.57,326.67h31.28a7.06,7.06,0,0,1,7.06,7.06v28.78a7.06,7.06,0,0,1-7.06,7.06H400.57a0,0,0,0,1,0,0v-42.9A0,0,0,0,1,400.57,326.67Z" style="fill: rgb(224, 224, 224); transform-origin: 419.74px 348.12px; transform: rotate(-14.27deg);" class="animable" id="elz51ssh5hc8"></path></g><g id="eluoao0vktkd"><path d="M359.53,324.3h35.8a0,0,0,0,1,0,0V341a0,0,0,0,1,0,0h-35.8a7.06,7.06,0,0,1-7.06-7.06v-2.55A7.06,7.06,0,0,1,359.53,324.3Z" style="fill: rgb(240, 240, 240); transform-origin: 373.9px 332.65px; transform: rotate(-14.27deg);" class="animable" id="elya505au1hqf"></path></g><g id="elmsflmc1dlgl"><path d="M394,313.73h35.8a7.06,7.06,0,0,1,7.06,7.06v2.55a7.06,7.06,0,0,1-7.06,7.06H394a0,0,0,0,1,0,0V313.73A0,0,0,0,1,394,313.73Z" style="fill: rgb(230, 230, 230); transform-origin: 415.43px 322.065px; transform: rotate(-14.27deg);" class="animable" id="eli553mha094p"></path></g><path d="M406.67,337.64h0a4.48,4.48,0,0,1-5.45-3.24l-.68-2.65,8.69-2.21.68,2.65A4.48,4.48,0,0,1,406.67,337.64Z" style="fill: rgb(240, 240, 240); transform-origin: 405.295px 333.66px;" id="elzten9n0mbv" class="animable"></path><path d="M369,347.21h0a4.47,4.47,0,0,1-5.44-3.24l-.68-2.65,8.69-2.21.67,2.65A4.48,4.48,0,0,1,369,347.21Z" style="fill: rgb(240, 240, 240); transform-origin: 367.63px 343.229px;" id="els42faeh404r" class="animable"></path><path d="M385.61,343h0a4.48,4.48,0,0,1-5.45-3.24l-.67-2.65,8.69-2.21.67,2.66A4.48,4.48,0,0,1,385.61,343Z" style="fill: rgb(240, 240, 240); transform-origin: 384.238px 339.02px;" id="elv8hyw5cmahc" class="animable"></path><path d="M426,332.73h0a4.48,4.48,0,0,1-5.45-3.24l-.67-2.65,8.69-2.21.67,2.65A4.48,4.48,0,0,1,426,332.73Z" style="fill: rgb(240, 240, 240); transform-origin: 424.63px 328.75px;" id="el2mmpqeppiy4" class="animable"></path><path d="M76.39,123.36c-.19-.4-4.68-9.91-1.11-18.7,2-5,6.28-8.74,12.62-11.07l.58,1.57c-5.88,2.15-9.79,5.56-11.65,10.12-3.29,8.1,1,17.27,1.07,17.36Z" style="fill: rgb(224, 224, 224); transform-origin: 81.1927px 108.475px;" id="elg5inyy9bnug" class="animable"></path><g id="el795fli4zmjr"><rect x="75.54" y="121.21" width="4.49" height="7.28" style="fill: rgb(240, 240, 240); transform-origin: 77.785px 124.85px; transform: rotate(-19.2deg);" class="animable" id="el5ozqiit6uz5"></rect></g><g id="ellmmp45mrldp"><rect x="73.93" y="125.26" width="10.48" height="7.14" style="fill: rgb(224, 224, 224); transform-origin: 79.17px 128.83px; transform: rotate(-19.2deg);" class="animable" id="el694fkmbnovv"></rect></g><g id="elzw6vp651s6"><rect x="70.47" y="128.75" width="33.05" height="40.42" rx="4.34" style="fill: rgb(245, 245, 245); transform-origin: 86.995px 148.96px; transform: rotate(-19.2deg);" class="animable" id="elixrbncjbbwd"></rect></g><g id="ellco76f6mj9o"><rect x="70.01" y="139.25" width="33.05" height="16.79" style="fill: rgb(235, 235, 235); transform-origin: 86.535px 147.645px; transform: rotate(-19.2deg);" class="animable" id="el9pibvht6a2"></rect></g><path d="M89.57,149.24a3.11,3.11,0,0,1-5.87,2c-.56-1.62.82-7.11.82-7.11S89,147.62,89.57,149.24Z" style="fill: rgb(224, 224, 224); transform-origin: 86.6169px 148.626px;" id="elemd57q5vvgs" class="animable"></path></g><g id="freepik--Shadow--inject-105" class="animable" style="transform-origin: 245.18px 412.39px;"><ellipse id="freepik--path--inject-105" cx="245.18" cy="412.39" rx="193.89" ry="11.32" style="fill: rgb(245, 245, 245); transform-origin: 245.18px 412.39px;" class="animable"></ellipse></g><g id="freepik--Window--inject-105" class="animable" style="transform-origin: 250.006px 204.995px;"><path d="M392.63,195.86,329.46,86.44a18.28,18.28,0,0,0-15.8-9.12H187.32a18.3,18.3,0,0,0-15.81,9.12L108.34,195.86a18.28,18.28,0,0,0,0,18.24l63.17,109.42a18.3,18.3,0,0,0,15.81,9.12H313.66a18.28,18.28,0,0,0,15.8-9.12L392.63,214.1A18.28,18.28,0,0,0,392.63,195.86Z" style="fill: #514869; transform-origin: 250.485px 204.98px;" id="elxw6arjumv2c" class="animable"></path><path d="M392.63,195.86,329.46,86.44a18.28,18.28,0,0,0-15.8-9.12H187.32a18.3,18.3,0,0,0-15.81,9.12L108.34,195.86a18.28,18.28,0,0,0,0,18.24l63.17,109.42a18.3,18.3,0,0,0,15.81,9.12H313.66a18.28,18.28,0,0,0,15.8-9.12L392.63,214.1A18.28,18.28,0,0,0,392.63,195.86Z" style="fill: rgb(38, 50, 56); transform-origin: 250.485px 204.98px;" id="elje0qc97h329" class="animable"></path><path d="M399.86,195.36,333.26,80a19.27,19.27,0,0,0-16.66-9.62H183.4A19.27,19.27,0,0,0,166.74,80l-66.6,115.35a19.27,19.27,0,0,0,0,19.24L166.74,330a19.28,19.28,0,0,0,16.66,9.61H316.6A19.28,19.28,0,0,0,333.26,330l66.6-115.36A19.27,19.27,0,0,0,399.86,195.36Zm-132.11-37h-35.5a5.93,5.93,0,0,1-5.12-3L190.4,91.76a5.91,5.91,0,0,1,5.12-8.87h109a5.91,5.91,0,0,1,5.12,8.87l-36.73,63.62A5.93,5.93,0,0,1,267.75,158.33ZM290.62,202a15.67,15.67,0,0,0,2.21,2.95,15.42,15.42,0,0,0-2.21,3l-17.75,30.74a15.53,15.53,0,0,0-1.45,3.39,16,16,0,0,0-3.67-.44h-35.5a16,16,0,0,0-3.67.44,15.53,15.53,0,0,0-1.45-3.39l-17.75-30.74a15.42,15.42,0,0,0-2.21-3,15.67,15.67,0,0,0,2.21-2.95l17.75-30.75a15.53,15.53,0,0,0,1.45-3.39,16,16,0,0,0,3.67.44h35.5a16,16,0,0,0,3.67-.44,15.53,15.53,0,0,0,1.45,3.39Zm-72.14-41.66a5.94,5.94,0,0,1,0,5.91L200.73,197a6,6,0,0,1-5.12,2.95H122.14a5.9,5.9,0,0,1-5.11-8.86l54.48-94.37a5.91,5.91,0,0,1,10.23,0ZM117,212.93a5.81,5.81,0,0,1,5.12-3h73.47a6,6,0,0,1,5.12,3l17.75,30.75a5.94,5.94,0,0,1,0,5.91l-36.74,63.62a5.91,5.91,0,0,1-10.23,0L117,218.84A5.82,5.82,0,0,1,117,212.93ZM190.4,318.21l36.73-63.63a5.93,5.93,0,0,1,5.12-3h35.5a5.93,5.93,0,0,1,5.12,3l36.73,63.63a5.91,5.91,0,0,1-5.12,8.86h-109a5.91,5.91,0,0,1-5.12-8.86Zm91.12-68.62a5.94,5.94,0,0,1,0-5.91l17.75-30.75a6,6,0,0,1,5.12-3h73.47a5.91,5.91,0,0,1,5.12,8.86l-54.49,94.37a5.91,5.91,0,0,1-10.23,0ZM383,197a5.81,5.81,0,0,1-5.12,2.95H304.39a6,6,0,0,1-5.12-2.95l-17.75-30.75a5.94,5.94,0,0,1,0-5.91l36.74-63.62a5.91,5.91,0,0,1,10.23,0L383,191.12A5.81,5.81,0,0,1,383,197Z" style="fill: #514869; transform-origin: 250.006px 204.995px;" id="elae5pk1bvnte" class="animable"></path><g id="elnsqglgjpu4o"><circle cx="244.57" cy="109.08" r="13.11" style="fill: #514869; transform-origin: 244.57px 109.08px; transform: rotate(-70deg);" class="animable" id="el3t32jttf8hf"></circle></g><g id="el1pxzqb23871"><circle cx="244.57" cy="109.08" r="13.11" style="fill: rgb(255, 255, 255); opacity: 0.9; transform-origin: 244.57px 109.08px; transform: rotate(-70deg);" class="animable" id="elxsqyoxqmp6"></circle></g><path d="M263.65,96.46a5.84,5.84,0,0,1-5.74-1.29c-5.05-5.18-13.61-6.65-21.27-3.08s-12,11.08-11.31,18.27a5.8,5.8,0,0,1-2.7,5.22c-6,4.1-9.38,7.58-8.57,9.32,1.5,3.21,16.64-.68,33.83-8.7s29.9-17.11,28.41-20.32C275.48,94.14,270.65,94.49,263.65,96.46Zm-17.4,16.23c-13.47,6.28-24.78,10.53-25.86,8.23-.56-1.2,1.89-3.65,6.25-6.62a5.82,5.82,0,0,0,2.78-4.81c-.17-5.2,3.19-10.9,9-13.61s12.34-1.61,16.21,1.87a5.85,5.85,0,0,0,5.47,1c5.07-1.44,8.53-1.74,9.08-.54C270.25,100.48,259.72,106.41,246.25,112.69Z" style="fill: #514869; transform-origin: 245.18px 108.078px;" id="elw9d51tgc3fe" class="animable"></path><g id="eleuga95t7du6"><path d="M263.65,96.46a5.84,5.84,0,0,1-5.74-1.29c-5.05-5.18-13.61-6.65-21.27-3.08s-12,11.08-11.31,18.27a5.8,5.8,0,0,1-2.7,5.22c-6,4.1-9.38,7.58-8.57,9.32,1.5,3.21,16.64-.68,33.83-8.7s29.9-17.11,28.41-20.32C275.48,94.14,270.65,94.49,263.65,96.46Zm-17.4,16.23c-13.47,6.28-24.78,10.53-25.86,8.23-.56-1.2,1.89-3.65,6.25-6.62a5.82,5.82,0,0,0,2.78-4.81c-.17-5.2,3.19-10.9,9-13.61s12.34-1.61,16.21,1.87a5.85,5.85,0,0,0,5.47,1c5.07-1.44,8.53-1.74,9.08-.54C270.25,100.48,259.72,106.41,246.25,112.69Z" style="fill: rgb(255, 255, 255); opacity: 0.6; transform-origin: 245.18px 108.078px;" class="animable" id="ely1pz3avyisa"></path></g><polygon points="231.41 304.93 229.27 303.81 229.68 306.19 227.94 307.88 230.34 308.23 231.41 310.4 232.49 308.23 234.88 307.88 233.15 306.19 233.56 303.81 231.41 304.93" style="fill: rgb(245, 245, 245); transform-origin: 231.41px 307.105px;" id="elarau5q8n7ni" class="animable"></polygon><polygon points="305.14 263.73 302.99 262.6 303.4 264.99 301.67 266.68 304.06 267.02 305.14 269.2 306.21 267.02 308.61 266.68 306.87 264.99 307.28 262.6 305.14 263.73" style="fill: rgb(245, 245, 245); transform-origin: 305.14px 265.9px;" id="elvpgmuzucgef" class="animable"></polygon><polygon points="140.46 230.35 138.32 229.23 138.73 231.61 137 233.3 139.39 233.65 140.46 235.82 141.54 233.65 143.93 233.3 142.2 231.61 142.61 229.23 140.46 230.35" style="fill: rgb(245, 245, 245); transform-origin: 140.465px 232.525px;" id="elfxd7ogedpq" class="animable"></polygon><polygon points="267.52 219.18 265.38 218.06 265.79 220.44 264.05 222.13 266.45 222.48 267.52 224.66 268.6 222.48 270.99 222.13 269.26 220.44 269.67 218.06 267.52 219.18" style="fill: rgb(245, 245, 245); transform-origin: 267.52px 221.36px;" id="el33gdmds6by" class="animable"></polygon><polygon points="183.85 150.31 181.7 149.18 182.11 151.57 180.38 153.26 182.78 153.61 183.85 155.78 184.92 153.61 187.32 153.26 185.58 151.57 185.99 149.18 183.85 150.31" style="fill: rgb(245, 245, 245); transform-origin: 183.85px 152.48px;" id="eltgqz9qdjaak" class="animable"></polygon><polygon points="233.69 193.47 231.55 192.34 231.96 194.73 230.22 196.42 232.62 196.77 233.69 198.94 234.76 196.77 237.16 196.42 235.43 194.73 235.84 192.34 233.69 193.47" style="fill: rgb(245, 245, 245); transform-origin: 233.69px 195.64px;" id="eltluztd4d46a" class="animable"></polygon><polygon points="365.42 220.99 363.27 219.86 363.68 222.25 361.95 223.94 364.35 224.29 365.42 226.46 366.49 224.29 368.89 223.94 367.15 222.25 367.56 219.86 365.42 220.99" style="fill: rgb(245, 245, 245); transform-origin: 365.42px 223.16px;" id="elirftm3we24" class="animable"></polygon><polygon points="189.79 246.93 186.65 245.28 187.25 248.77 184.71 251.25 188.22 251.76 189.79 254.94 191.36 251.76 194.87 251.25 192.33 248.77 192.93 245.28 189.79 246.93" style="fill: rgb(250, 250, 250); transform-origin: 189.79px 250.11px;" id="el2b5nlx9klgy" class="animable"></polygon><polygon points="238.77 144.63 235.63 142.99 236.23 146.48 233.69 148.95 237.2 149.46 238.77 152.64 240.34 149.46 243.85 148.95 241.31 146.48 241.91 142.99 238.77 144.63" style="fill: rgb(255, 255, 255); transform-origin: 238.77px 147.815px;" id="el1nnjisfr7dm" class="animable"></polygon><polygon points="323.71 103.16 320.57 101.51 321.17 105 318.63 107.48 322.14 107.99 323.71 111.17 325.28 107.99 328.79 107.48 326.25 105 326.85 101.51 323.71 103.16" style="fill: rgb(255, 255, 255); transform-origin: 323.71px 106.34px;" id="elfprfvqnw6ef" class="animable"></polygon><g id="el491h773aloa"><circle cx="257.73" cy="281.3" r="16.91" style="fill: #514869; transform-origin: 257.73px 281.3px; transform: rotate(-22.5deg);" class="animable" id="el367hk29jboo"></circle></g><g id="eleut9dbmc8v"><path d="M273,274.12c-1.48,1.7-3.9,2.67-5.88,4.31-2.45,2-1.27,5-5.92,7.95s-7,1.19-9.65,2.37c-1.82.82-5.27,2.18-7.21,2.93a17,17,0,0,0,7.05,5.31c2.71-.93,7.34-1.87,6.93-2.57-.59-1-4.48.68-5.16-.42s1.78-1.27,7.45-1.78,8.54-6,10.49-8.63a8,8,0,0,1,3.49-2.69A16.91,16.91,0,0,0,273,274.12Z" style="fill: rgb(245, 245, 245); opacity: 0.3; transform-origin: 259.465px 285.555px;" class="animable" id="elmlls4f6hit9"></path></g><g id="elysba1j31cn"><path d="M267.35,267.4c-5.24,4.19-7.27.9-11.36,3.93s-.25,5.49-6.76,8.79c-4.54,2.3-7.14,2.87-8.31,3a16.67,16.67,0,0,0,1.14,4.52,18.12,18.12,0,0,0,6.4-2c4.91-2.37,4.75.17,9.27-1.94s3.25-6.43,7-8.89a59.07,59.07,0,0,0,6.08-4.23A16.66,16.66,0,0,0,267.35,267.4Zm-8.77,10.93c-1,1.17-2.42,1.62-3.11,1s-.41-2.05.62-3.22,2.43-1.62,3.11-1S259.61,277.17,258.58,278.33Z" style="fill: rgb(245, 245, 245); opacity: 0.7; transform-origin: 255.865px 277.52px;" class="animable" id="elcz6evcfz244"></path></g><g id="el9nhr4031x9"><path d="M250.53,274.14c.48.41.29,1.4-.42,2.21s-1.67,1.11-2.14.69-.28-1.4.43-2.21S250.06,273.72,250.53,274.14Z" style="fill: rgb(245, 245, 245); opacity: 0.3; transform-origin: 249.254px 275.59px;" class="animable" id="elrhub4nzxq8"></path></g><g id="elcwud98bx6k"><path d="M264.16,293.26c.27.57-.29,1.4-1.26,1.86s-2,.37-2.24-.2.3-1.41,1.26-1.86S263.9,292.69,264.16,293.26Z" style="fill: rgb(245, 245, 245); opacity: 0.7; transform-origin: 262.416px 294.092px;" class="animable" id="el82uo9yz6ytg"></path></g></g><g id="freepik--character-2--inject-105" class="animable" style="transform-origin: 343.215px 220.042px;"><path d="M375.05,164.08a5.62,5.62,0,0,0,2.81-7.44l-23.11-51.16a5.63,5.63,0,0,0-7.44-2.81l-46.8,21.15a5.62,5.62,0,0,0-2.81,7.44l23.11,51.15a5.62,5.62,0,0,0,7.44,2.81l0,0a5.62,5.62,0,0,0-2.81,7.44l7.08,15.67a5.62,5.62,0,0,0,7.44,2.81L386.78,190a5.61,5.61,0,0,0,2.81-7.43l-7.08-15.67a5.62,5.62,0,0,0-7.44-2.81Z" style="fill: rgb(38, 50, 56); transform-origin: 343.645px 156.907px;" id="elma9oeebaat" class="animable"></path><g id="el61i4bfvc0wc"><path d="M375.05,164.08a5.62,5.62,0,0,0,2.81-7.44l-23.11-51.16a5.63,5.63,0,0,0-7.44-2.81l-46.8,21.15a5.62,5.62,0,0,0-2.81,7.44l23.11,51.15a5.62,5.62,0,0,0,7.44,2.81l0,0a5.62,5.62,0,0,0-2.81,7.44l7.08,15.67a5.62,5.62,0,0,0,7.44,2.81L386.78,190a5.61,5.61,0,0,0,2.81-7.43l-7.08-15.67a5.62,5.62,0,0,0-7.44-2.81Z" style="fill: rgb(255, 255, 255); opacity: 0.3; transform-origin: 343.645px 156.907px;" class="animable" id="elg22jotdzdnv"></path></g><path d="M375.05,164.08a5.62,5.62,0,0,0,2.81-7.44l-23.11-51.16a5.63,5.63,0,0,0-7.44-2.81L331,110a5.61,5.61,0,0,0-2.81,7.43l23.11,51.16a5.62,5.62,0,0,0,7.44,2.81l0,0a5.62,5.62,0,0,0-2.81,7.44l7.08,15.67a5.63,5.63,0,0,0,7.44,2.81L386.78,190a5.61,5.61,0,0,0,2.81-7.43l-7.08-15.67a5.62,5.62,0,0,0-7.44-2.81Z" style="fill: rgb(38, 50, 56); transform-origin: 358.89px 149.995px;" id="elnma4w93pcbo" class="animable"></path><g id="elttn0u7bimji"><path d="M375.05,164.08a5.62,5.62,0,0,0,2.81-7.44l-23.11-51.16a5.63,5.63,0,0,0-7.44-2.81L331,110a5.61,5.61,0,0,0-2.81,7.43l23.11,51.16a5.62,5.62,0,0,0,7.44,2.81l0,0a5.62,5.62,0,0,0-2.81,7.44l7.08,15.67a5.63,5.63,0,0,0,7.44,2.81L386.78,190a5.61,5.61,0,0,0,2.81-7.43l-7.08-15.67a5.62,5.62,0,0,0-7.44-2.81Z" style="fill: rgb(255, 255, 255); opacity: 0.6; transform-origin: 358.89px 149.995px;" class="animable" id="elgl95o7q0owk"></path></g><g id="el3864vzmhmw3"><rect x="361.9" y="172.29" width="18.49" height="8.22" style="fill: rgb(38, 50, 56); transform-origin: 371.145px 176.4px; transform: rotate(-24.31deg);" class="animable" id="el41wm3gd2pa"></rect></g><path d="M370.87,189.62a1.89,1.89,0,1,1-2.5-1A1.89,1.89,0,0,1,370.87,189.62Z" style="fill: #514869; transform-origin: 369.127px 190.352px;" id="el85fs4fvcvq4" class="animable"></path><path d="M377.52,186.62a1.9,1.9,0,1,1-2.51-1A1.9,1.9,0,0,1,377.52,186.62Z" style="fill: #514869; transform-origin: 375.77px 187.361px;" id="el7yzmpwl80b8" class="animable"></path><path d="M280.25,106.71,274,110.06c-1.09.58-1.33,2.24-.55,3.71s2.31,2.18,3.4,1.59L283.1,112c1.09-.58,1.33-2.25.55-3.71S281.34,106.13,280.25,106.71Z" style="fill: rgb(38, 50, 56); transform-origin: 278.55px 111.037px;" id="eljd4zxn9ubj" class="animable"></path><path d="M277.42,111.65c.79,1.47.54,3.13-.54,3.71s-2.61-.13-3.4-1.59-.54-3.13.55-3.71S276.63,110.19,277.42,111.65Z" style="fill: #514869; transform-origin: 275.45px 112.71px;" id="el97u8uj51rhc" class="animable"></path><g id="elhbhnpoxxwgd"><path d="M277.42,111.65c.79,1.47.54,3.13-.54,3.71s-2.61-.13-3.4-1.59-.54-3.13.55-3.71S276.63,110.19,277.42,111.65Z" style="fill: rgb(255, 255, 255); opacity: 0.4; transform-origin: 275.45px 112.71px;" class="animable" id="el5mjlprxxos"></path></g><path d="M277.3,111.72c.63,1.17.44,2.5-.43,3s-2.09-.1-2.72-1.27a2.17,2.17,0,0,1,.44-3C275.46,110,276.67,110.55,277.3,111.72Z" style="fill: #514869; transform-origin: 275.704px 112.595px;" id="elx69rv3t3bz" class="animable"></path><g id="elrtww6x6qbf"><path d="M275.62,111.24a.66.66,0,0,1-.13.88.63.63,0,0,1-.8-.38.63.63,0,0,1,.13-.87C275.07,110.73,275.43,110.9,275.62,111.24Z" style="fill: rgb(255, 255, 255); opacity: 0.5; transform-origin: 275.152px 111.488px;" class="animable" id="elvj3t6kw1eaq"></path></g><g id="el3d0nc9juas9"><path d="M276.6,113.08a.65.65,0,0,1-.12.88.74.74,0,1,1,.12-.88Z" style="opacity: 0.2; transform-origin: 275.967px 113.44px;" class="animable" id="elajcvmbry8we"></path></g><path d="M293.91,140.73l23.24-12.48a7.69,7.69,0,0,1,.11-3.34A20.16,20.16,0,1,0,291.1,139,7.62,7.62,0,0,1,293.91,140.73Z" style="fill: #514869; transform-origin: 297.718px 120.264px;" id="elhm4f932qyav" class="animable"></path><path d="M303.24,122.82c2.63,3.91,5.88,8.35,10,9.22a10.15,10.15,0,0,1-5.09,9.79c-4.33,2.53-5.42-1.42-5.62-3.7.84-3.11-1.25-5-2.56-6.48Z" style="fill: rgb(255, 139, 123); transform-origin: 306.628px 132.733px;" id="el30oar42ldqt" class="animable"></path><g id="el1ed33e0ikqpj"><path d="M303,125.51c-.16-.25-.34-.5-.51-.74L300,131.65a11.41,11.41,0,0,1,2.4,3.27C303.93,132.12,304.56,127.91,303,125.51Z" style="opacity: 0.2; transform-origin: 301.952px 129.845px;" class="animable" id="elm0h1f8gdim"></path></g><path d="M301.79,115.91c2,5.92,3.53,9.27,1.86,13.46-2.52,6.3-10.7,6.67-14.45,1.5-3.38-4.66-6.15-13.55-1.48-18.23A8.46,8.46,0,0,1,301.79,115.91Z" style="fill: rgb(255, 139, 123); transform-origin: 294.804px 122.278px;" id="el6kxvs6p9bew" class="animable"></path><path d="M306.16,120.93a6,6,0,0,1-2.15,4c-1.62,1.32-3.24.07-3.47-1.9-.21-1.77.39-4.58,2.34-5.13A2.65,2.65,0,0,1,306.16,120.93Z" style="fill: rgb(255, 139, 123); transform-origin: 303.351px 121.644px;" id="eljlvgxiieb98" class="animable"></path><path d="M293.52,121.57c.2.47.11,1-.2,1.09s-.71-.15-.9-.62-.11-1,.2-1.08S293.33,121.1,293.52,121.57Z" style="fill: rgb(38, 50, 56); transform-origin: 292.972px 121.811px;" id="elnfmzdeuu5o" class="animable"></path><path d="M287.77,124.22c.2.47.11,1-.2,1.09s-.71-.15-.9-.62-.11-1,.2-1.08S287.58,123.76,287.77,124.22Z" style="fill: rgb(38, 50, 56); transform-origin: 287.222px 124.461px;" id="el1v98jazs4fn" class="animable"></path><path d="M289.69,124a18.52,18.52,0,0,1-.86,4.92,2.89,2.89,0,0,0,2.43-.37Z" style="fill: rgb(255, 86, 82); transform-origin: 290.045px 126.52px;" id="elc1k75ar27jc" class="animable"></path><path d="M293.29,118.47a.22.22,0,0,0,.08-.13.29.29,0,0,0-.18-.38,2.91,2.91,0,0,0-2.69.34.3.3,0,0,0-.05.42.29.29,0,0,0,.41,0h0a2.35,2.35,0,0,1,2.14-.24A.28.28,0,0,0,293.29,118.47Z" style="fill: rgb(38, 50, 56); transform-origin: 291.888px 118.29px;" id="elxqkvxgfmur" class="animable"></path><path d="M284.79,122.45a.29.29,0,0,0,.21-.19,2.38,2.38,0,0,1,1.53-1.52.3.3,0,0,0,.22-.36.3.3,0,0,0-.35-.23,3,3,0,0,0-2,1.91.31.31,0,0,0,.18.38A.33.33,0,0,0,284.79,122.45Z" style="fill: rgb(38, 50, 56); transform-origin: 285.572px 121.304px;" id="ell1c929yebj" class="animable"></path><path d="M291.41,129.58a25.61,25.61,0,0,1,4.34-2.36,3.09,3.09,0,0,1-2,3.17A1.61,1.61,0,0,1,291.41,129.58Z" style="fill: rgb(38, 50, 56); transform-origin: 293.586px 128.921px;" id="elqx833hrnsk" class="animable"></path><path d="M294.16,129.21a3.48,3.48,0,0,0-1.63,1.35,1.83,1.83,0,0,0,1.18-.18,3.4,3.4,0,0,0,1.62-1.35A1.8,1.8,0,0,0,294.16,129.21Z" style="fill: rgb(255, 86, 82); transform-origin: 293.93px 129.795px;" id="elseqrcjwfbpl" class="animable"></path><path d="M291.55,129.48a.68.68,0,0,0,.72.27,17.81,17.81,0,0,0,2.8-1.61,1.07,1.07,0,0,0,.53-.85A28.4,28.4,0,0,0,291.55,129.48Z" style="fill: rgb(255, 255, 255); transform-origin: 293.575px 128.53px;" id="elkf9ocaq4pt" class="animable"></path><path d="M283.4,116.64a1.37,1.37,0,0,0,2.18,1c2.46-1.79,7.2-4.69,9.2-2.15,2.77,3.51,3.69,13.24,9.49,10.3,2.67-1.35,2.8-4.76,1.83-8.63-1.14-4.55-4.09-9.56-10.42-9.93S283.34,112.23,283.4,116.64Z" style="fill: rgb(38, 50, 56); transform-origin: 295.026px 116.774px;" id="elfo9tgctfpfs" class="animable"></path><path d="M301.15,133.42s3-1.86,5-7.3c0,0,4.14,5.22,7.44,5.2,0,0,1.34,9-6,11.48s-5.54-5.07-5.54-5.07A4.41,4.41,0,0,0,301.15,133.42Z" style="fill: rgb(38, 50, 56); transform-origin: 307.418px 134.71px;" id="elffqsv25qt7" class="animable"></path><g id="elybdql2cftsf"><path d="M301.15,133.42s3-1.86,5-7.3c0,0,4.14,5.22,7.44,5.2,0,0,1.34,9-6,11.48s-5.54-5.07-5.54-5.07A4.41,4.41,0,0,0,301.15,133.42Z" style="fill: rgb(255, 255, 255); opacity: 0.5; transform-origin: 307.418px 134.71px;" class="animable" id="elz1aoid3rgvi"></path></g><path d="M301.45,134c2.56-1.63,4.2-4.83,5.26-7.55.31-.79-.87-1.4-1.18-.6-1,2.52-2.42,5.52-4.8,7a.66.66,0,0,0,.72,1.11Z" style="fill: #514869; transform-origin: 303.596px 129.77px;" id="el6fn14v0z1hi" class="animable"></path><g id="eli5dg4gr3ik9"><g style="opacity: 0.3; transform-origin: 303.596px 129.77px;" class="animable" id="elimich9c2z3"><path d="M301.45,134c2.56-1.63,4.2-4.83,5.26-7.55.31-.79-.87-1.4-1.18-.6-1,2.52-2.42,5.52-4.8,7a.66.66,0,0,0,.72,1.11Z" style="fill: rgb(255, 255, 255); transform-origin: 303.596px 129.77px;" id="elrrkkl1l9y3" class="animable"></path></g></g><g id="elqef0ngfr08g"><path d="M283.4,116.64a1.37,1.37,0,0,0,2.18,1c2.46-1.79,7.2-4.69,9.2-2.15,2.77,3.51,3.69,13.24,9.49,10.3,2.67-1.35,2.8-4.76,1.83-8.63-1.14-4.55-4.09-9.56-10.42-9.93S283.34,112.23,283.4,116.64Z" style="fill: rgb(255, 255, 255); opacity: 0.5; transform-origin: 295.026px 116.774px;" class="animable" id="elneyh5aehufj"></path></g><path d="M305.47,116.79c1,2.55.75,3.86-1.45,4.76s-3.32.19-4.37-2.36-.75-3.86,1.44-4.76S304.41,114.24,305.47,116.79Z" style="fill: rgb(38, 50, 56); transform-origin: 302.549px 117.99px;" id="el3aat7e73pv" class="animable"></path><path d="M287.46,102.62a20,20,0,0,0-5.85,5.25l.57-.32c9.81-5.27,21-3.5,25,3.94s-.71,17.75-10.51,23a25.29,25.29,0,0,1-9.08,2.89A20.2,20.2,0,0,0,291.1,139a7.62,7.62,0,0,1,2.81,1.73l23.24-12.48a7.69,7.69,0,0,1,.11-3.34,20.16,20.16,0,0,0-29.8-22.29Z" style="fill: #514869; transform-origin: 299.741px 120.274px;" id="elqu77jbf3qz" class="animable"></path><g id="elklub7u2020p"><path d="M287.46,102.62a20,20,0,0,0-5.85,5.25l.57-.32c9.81-5.27,21-3.5,25,3.94s-.71,17.75-10.51,23a25.29,25.29,0,0,1-9.08,2.89A20.2,20.2,0,0,0,291.1,139a7.62,7.62,0,0,1,2.81,1.73l23.24-12.48a7.69,7.69,0,0,1,.11-3.34,20.16,20.16,0,0,0-29.8-22.29Z" style="fill: rgb(255, 255, 255); opacity: 0.7; transform-origin: 299.741px 120.274px;" class="animable" id="elay72w8cs85e"></path></g><path d="M282.42,106.85a20.9,20.9,0,0,0-1.8,2.48c.61-.4,1.25-.78,1.91-1.13,9.51-5.11,20.34-3.52,24.14,3.56s-.84,17-10.35,22.1a24.68,24.68,0,0,1-9.71,2.92c.58.38,1.17.73,1.78,1.05a26.18,26.18,0,0,0,8.52-2.87c10.14-5.45,15-16.1,10.86-23.79S292.44,101.72,282.42,106.85Z" style="fill: #514869; transform-origin: 294.934px 120.882px;" id="el5sv3i7y461e" class="animable"></path><g id="elsptbne5ty0q"><path d="M282.42,106.85a20.9,20.9,0,0,0-1.8,2.48c.61-.4,1.25-.78,1.91-1.13,9.51-5.11,20.34-3.52,24.14,3.56s-.84,17-10.35,22.1a24.68,24.68,0,0,1-9.71,2.92c.58.38,1.17.73,1.78,1.05a26.18,26.18,0,0,0,8.52-2.87c10.14-5.45,15-16.1,10.86-23.79S292.44,101.72,282.42,106.85Z" style="opacity: 0.4; transform-origin: 294.934px 120.882px;" class="animable" id="eln6gdepanv1d"></path></g><g id="ell0fdktwhf5"><path d="M285.48,112.6a13.93,13.93,0,0,1,2.41-3.12,20.7,20.7,0,0,0-5,1.59,17.49,17.49,0,0,0-1.66,3.85A30.84,30.84,0,0,1,285.48,112.6Z" style="fill: rgb(255, 255, 255); opacity: 0.6; transform-origin: 284.56px 112.2px;" class="animable" id="elu9b44e6xs5q"></path></g><g id="elop0hw0svlwd"><path d="M284.62,114.4a30.25,30.25,0,0,0-3.82,2.33,17,17,0,0,0,8,17.61,22.11,22.11,0,0,0,4.22-1.71l.08,0-.18-.08a13.77,13.77,0,0,1-8.29-18.1Z" style="fill: rgb(255, 255, 255); opacity: 0.6; transform-origin: 286.815px 124.37px;" class="animable" id="el7u4714a2qhp"></path></g><g id="elroqmczplysd"><path d="M304.1,101.09h0a.51.51,0,0,1,.51.51V109a0,0,0,0,1,0,0h-1a0,0,0,0,1,0,0v-7.37A.51.51,0,0,1,304.1,101.09Z" style="fill: rgb(38, 50, 56); transform-origin: 304.11px 105.045px; transform: rotate(-28.24deg);" class="animable" id="elsk6o5tk02v"></path></g><g id="el0xt33ql4pg49"><path d="M304.1,101.09h0a.51.51,0,0,1,.51.51V109a0,0,0,0,1,0,0h-1a0,0,0,0,1,0,0v-7.37A.51.51,0,0,1,304.1,101.09Z" style="fill: rgb(255, 255, 255); opacity: 0.4; transform-origin: 304.11px 105.045px; transform: rotate(-28.24deg);" class="animable" id="elcoppx7pitg"></path></g><g id="el3891akgxhep"><path d="M303.13,88.68h0a.51.51,0,0,1,.51.51v19.49a0,0,0,0,1,0,0h-1a0,0,0,0,1,0,0V89.19A.51.51,0,0,1,303.13,88.68Z" style="fill: rgb(38, 50, 56); transform-origin: 303.14px 98.68px; transform: rotate(-28.25deg);" class="animable" id="eltjl54m84xg9"></path></g><g id="eljtd9vgdlo2j"><path d="M303.13,88.68h0a.51.51,0,0,1,.51.51v19.49a0,0,0,0,1,0,0h-1a0,0,0,0,1,0,0V89.19A.51.51,0,0,1,303.13,88.68Z" style="fill: rgb(255, 255, 255); opacity: 0.6; transform-origin: 303.14px 98.68px; transform: rotate(-28.25deg);" class="animable" id="elz2i6bsq15h9"></path></g><polygon points="385.29 200.47 379.19 192.97 373.68 195.52 375.35 205.04 385.29 200.47" style="fill: rgb(38, 50, 56); transform-origin: 379.485px 199.005px;" id="elre9rxhy1cb" class="animable"></polygon><g id="elsd2ju12fp0m"><polygon points="380.96 195.15 379.19 192.97 373.68 195.52 374.17 198.3 380.96 195.15" style="opacity: 0.6; transform-origin: 377.32px 195.635px;" class="animable" id="elcxxvrtk3884"></polygon></g><path d="M278.17,166.55c3.43-6.76,11.19-27.83,19.13-23.53s-5.32,29-12.16,36.55c-4.72,5.18-17.46,10.8-24.89,13.78a5,5,0,0,1-6.78-3.64l-.43-2.07a5,5,0,0,1,3.16-5.71C262.46,179.63,274.17,174.43,278.17,166.55Z" style="fill: #514869; transform-origin: 276.346px 168.082px;" id="el9y5z02pya4s" class="animable"></path><g id="elemzy3xm83jm"><path d="M278.17,166.55c3.43-6.76,11.19-27.83,19.13-23.53s-5.32,29-12.16,36.55c-4.72,5.18-17.46,10.8-24.89,13.78a5,5,0,0,1-6.78-3.64l-.43-2.07a5,5,0,0,1,3.16-5.71C262.46,179.63,274.17,174.43,278.17,166.55Z" style="fill: rgb(255, 255, 255); opacity: 0.8; transform-origin: 276.346px 168.082px;" class="animable" id="elk3lfj7u6b6e"></path></g><path d="M279.21,165.47c4.32.33,8.76,2.34,11.16,6,1,1.53,3.18-.3,2.19-1.82-2.77-4.26-8.07-6.67-13.05-7.05-1.83-.14-2.13,2.69-.3,2.83Z" style="fill: #514869; transform-origin: 285.395px 167.321px;" id="elyc9lhoseo3f" class="animable"></path><path d="M269.63,175.91c-.34-.3.44.46.57.59a22.16,22.16,0,0,1,1.69,2.05,16.64,16.64,0,0,1,3.16,7.48,1.42,1.42,0,0,0,2.81-.44,20.59,20.59,0,0,0-6.59-12c-1.35-1.23-3,1.1-1.64,2.32Z" style="fill: #514869; transform-origin: 273.499px 180.236px;" id="elg1r62v63oli" class="animable"></path><g id="eliyz0irbeea"><g style="opacity: 0.3; transform-origin: 285.395px 167.321px;" class="animable" id="elryk9qjxpz9n"><path d="M279.21,165.47c4.32.33,8.76,2.34,11.16,6,1,1.53,3.18-.3,2.19-1.82-2.77-4.26-8.07-6.67-13.05-7.05-1.83-.14-2.13,2.69-.3,2.83Z" style="fill: rgb(255, 255, 255); transform-origin: 285.395px 167.321px;" id="ellvf6hew7rz" class="animable"></path></g></g><g id="elrl7vdvvf8if"><g style="opacity: 0.3; transform-origin: 273.499px 180.236px;" class="animable" id="elfyrel8jzwha"><path d="M269.63,175.91c-.34-.3.44.46.57.59a22.16,22.16,0,0,1,1.69,2.05,16.64,16.64,0,0,1,3.16,7.48,1.42,1.42,0,0,0,2.81-.44,20.59,20.59,0,0,0-6.59-12c-1.35-1.23-3,1.1-1.64,2.32Z" style="fill: rgb(255, 255, 255); transform-origin: 273.499px 180.236px;" id="eltrc9bgl5dr" class="animable"></path></g></g><g id="elo0tha0r2iph"><path d="M299.62,150.41l-3.86-5.27-2.16,1s-6,7.45.47,19.76C296.81,160.56,299.05,154.87,299.62,150.41Z" style="opacity: 0.2; transform-origin: 295.344px 155.52px;" class="animable" id="eleha24s00m"></path></g><path d="M293.81,141.83c5-5.3,13.62-12.13,25.89-13.59a11,11,0,0,1,10.69,5.38c5.39,9.18,16.05,28.66,23.49,50.93,0,0-21.73,15.8-39.74,18,0,0-10.56-11-12.22-29.92l-9.75-18A11,11,0,0,1,293.81,141.83Z" style="fill: #514869; transform-origin: 322.353px 165.362px;" id="elck6usyuz6d" class="animable"></path><path d="M314.15,199.09a354,354,0,0,0,19.5,61.45c14,33.46,21.67,47.95,21.67,47.95L372,302.28l-23.31-79.89s5.32-15.77-3-34.13Z" style="fill: #514869; transform-origin: 343.075px 248.375px;" id="el4bawlgeia0m" class="animable"></path><g id="eljsp6j59ivt"><path d="M314.15,199.09a354,354,0,0,0,19.5,61.45c14,33.46,21.67,47.95,21.67,47.95L372,302.28l-23.31-79.89s5.32-15.77-3-34.13Z" style="fill: rgb(255, 255, 255); opacity: 0.7; transform-origin: 343.075px 248.375px;" class="animable" id="el7jlcf7alh2g"></path></g><g id="elfjes3qo3giq"><path d="M349.67,217.89l-7.79-10.49-4.75,3.19s-1.59,18.09,22.24,48.54l-10.72-36.74A32.31,32.31,0,0,0,349.67,217.89Z" style="opacity: 0.2; transform-origin: 348.239px 233.265px;" class="animable" id="els0xkwg8255m"></path></g><path d="M373.19,300.09l11.87,39.85-.67.3-2-.21-1.15,1.61-2-.21L378.18,343l-2-.21-1.14,1.62-2-.21L372,345.85l-2-.21-1.14,1.61-2-.21-1.14,1.62-2-.21-1.14,1.61-.87.39S357,344.63,367.69,338l-14.46-30.61A68.73,68.73,0,0,0,373.19,300.09Z" style="fill: #514869; transform-origin: 369.145px 325.27px;" id="eldubgwmx44ye" class="animable"></path><g id="el501q7v1884p"><path d="M373.19,300.09l11.87,39.85-.67.3-2-.21-1.15,1.61-2-.21L378.18,343l-2-.21-1.14,1.62-2-.21L372,345.85l-2-.21-1.14,1.61-2-.21-1.14,1.62-2-.21-1.14,1.61-.87.39S357,344.63,367.69,338l-14.46-30.61A68.73,68.73,0,0,0,373.19,300.09Z" style="fill: rgb(255, 255, 255); opacity: 0.5; transform-origin: 369.145px 325.27px;" class="animable" id="ely9n4ungyms"></path></g><path d="M381.48,338,368,344.11l-3.43-3.89c-6.53,5.68-2.81,10.23-2.81,10.23l.87-.39,1.14-1.61,2,.21L366.9,347l2,.21,1.14-1.61,2,.21,1.14-1.61,2,.21,1.14-1.62,2,.21,1.14-1.61,2,.21,1.15-1.61,2,.21.67-.3-1.79-6Z" style="fill: rgb(38, 50, 56); transform-origin: 372.992px 342.175px;" id="elkda3f4l1w9" class="animable"></path><path d="M328.71,196.17S347.32,234.34,365,258.6c8.72,12,15,20.74,19.05,26.58a11.46,11.46,0,0,0,15.38,3.18l6.79-4.16s-31.74-53-36.11-66.66-18.64-35.31-18.64-35.31Z" style="fill: #514869; transform-origin: 367.465px 236.143px;" id="elb2yid7wdys9" class="animable"></path><g id="elhwb44p0ujpn"><path d="M328.71,196.17S347.32,234.34,365,258.6c9.06,12.43,15.45,21.42,19.51,27.24a10.57,10.57,0,0,0,14.22,3l7.49-4.59s-31.74-53-36.11-66.66-18.64-35.31-18.64-35.31Z" style="fill: rgb(255, 255, 255); opacity: 0.7; transform-origin: 367.465px 236.34px;" class="animable" id="el8z5t6l3jrhu"></path></g><path d="M343,149.46c-6.76-3.43-27.82-11.19-23.52-19.14s29,5.32,36.54,12.16c5.18,4.73,10.8,17.46,13.79,24.89a5,5,0,0,1-3.64,6.79l-2.08.43a5,5,0,0,1-5.71-3.17C356.1,165.16,350.91,153.46,343,149.46Z" style="fill: #514869; transform-origin: 344.543px 151.277px;" id="elsgdvkisytga" class="animable"></path><g id="el39j0x65xgjh"><path d="M343,149.46c-6.76-3.43-27.82-11.19-23.52-19.14s29,5.32,36.54,12.16c5.18,4.73,10.8,17.46,13.79,24.89a5,5,0,0,1-3.64,6.79l-2.08.43a5,5,0,0,1-5.71-3.17C356.1,165.16,350.91,153.46,343,149.46Z" style="fill: rgb(255, 255, 255); opacity: 0.8; transform-origin: 344.543px 151.277px;" class="animable" id="el58g41hmxmgm"></path></g><path d="M397.4,266.46l42.2-10.8.15.72-.65,1.87,1.32,1.47-.64,1.87,1.32,1.47-.65,1.87,1.32,1.47-.64,1.87,1.32,1.47-.64,1.87,1.32,1.47-.65,1.87,1.32,1.47-.64,1.87,1.32,1.47.19.93s-6.37,5.22-10.49-6.68l-29.95,12.67S402.16,274.48,397.4,266.46Z" style="fill: #514869; transform-origin: 421.035px 271.17px;" id="el5fe17bzcg9l" class="animable"></path><g id="eltjir5n2nr6"><path d="M397.4,266.46l42.2-10.8.15.72-.65,1.87,1.32,1.47-.64,1.87,1.32,1.47-.65,1.87,1.32,1.47-.64,1.87,1.32,1.47-.64,1.87,1.32,1.47-.65,1.87,1.32,1.47-.64,1.87,1.32,1.47.19.93s-6.37,5.22-10.49-6.68l-29.95,12.67S402.16,274.48,397.4,266.46Z" style="fill: rgb(255, 255, 255); opacity: 0.5; transform-origin: 421.035px 271.17px;" class="animable" id="el4xdubzugkxj"></path></g><path d="M439.75,256.38l-.15-.72-6.79,1.73,4.66,2.76,2.78,13.71-4.44,3.84c4,7,8.86,3,8.86,3l-.19-.93-1.32-1.47.64-1.87L442.48,275l.65-1.87-1.32-1.47.64-1.87-1.32-1.47.64-1.87-1.32-1.47.65-1.87-1.32-1.47.64-1.87-1.32-1.47Z" style="fill: rgb(38, 50, 56); transform-origin: 438.74px 268.749px;" id="elw6ez3olfruk" class="animable"></path><path d="M319.32,128.3c-12.06,1.55-20.58,8.29-25.51,13.53a9.72,9.72,0,0,0-.66.78c-1.4,4.53-.72,10,.39,14.56l8.38,15.42c1.66,18.95,12.22,29.92,12.22,29.92,18-2.16,39.74-18,39.74-18A262.9,262.9,0,0,0,339.29,150C313.15,140.47,316.17,132,319.32,128.3Z" style="fill: #514869; transform-origin: 323.121px 165.405px;" id="ellqg2npvkwsl" class="animable"></path><g id="el9aay3x60pyu"><path d="M319.32,128.3c-12.06,1.55-20.58,8.29-25.51,13.53a9.72,9.72,0,0,0-.66.78c-1.4,4.53-.72,10,.39,14.56l8.38,15.42c1.66,18.95,12.22,29.92,12.22,29.92,18-2.16,39.74-18,39.74-18A262.9,262.9,0,0,0,339.29,150C313.15,140.47,316.17,132,319.32,128.3Z" style="fill: rgb(255, 255, 255); opacity: 0.7; transform-origin: 323.121px 165.405px;" class="animable" id="elmfa1jivbd58"></path></g><path d="M318.83,155.13a3.38,3.38,0,0,0-2.78-6.16l-.95.44a3.37,3.37,0,1,0,2.78,6.15Z" style="fill: rgb(38, 50, 56); transform-origin: 316.933px 152.281px;" id="el3wtfzn76m0c" class="animable"></path><g id="elyepf6qzmipg"><path d="M319.56,151.09a3.37,3.37,0,1,1-4.46-1.68A3.38,3.38,0,0,1,319.56,151.09Z" style="fill: rgb(255, 255, 255); opacity: 0.5; transform-origin: 316.49px 152.482px;" class="animable" id="elwwj7xm0859s"></path></g><path d="M317.94,151.83a1.59,1.59,0,1,1-2.11-.8A1.59,1.59,0,0,1,317.94,151.83Z" style="fill: #514869; transform-origin: 316.488px 152.478px;" id="elik8hnwnpnz" class="animable"></path><g id="eldwpb3wz5ug"><path d="M315.68,142.5a3.37,3.37,0,1,1-4.47-1.69A3.36,3.36,0,0,1,315.68,142.5Z" style="fill: rgb(255, 255, 255); opacity: 0.5; transform-origin: 312.605px 143.876px;" class="animable" id="elursbf1fsnto"></path></g><path d="M315,146.53a3.37,3.37,0,1,0-2.78-6.15l-1,.43A3.37,3.37,0,0,0,314,147Z" style="fill: rgb(38, 50, 56); transform-origin: 313.102px 143.688px;" id="eltl72o1xrnmo" class="animable"></path><path d="M314.83,142.88a2.45,2.45,0,1,1-3.24-1.22A2.45,2.45,0,0,1,314.83,142.88Z" style="fill: #514869; transform-origin: 312.599px 143.893px;" id="elezqt4p5p2zi" class="animable"></path><path d="M364,164.42l1.51,3.35s-4.33.68-7,2.95a.43.43,0,0,1-.68-.16l-.91-2.42a.73.73,0,0,1,.19-.79C358.06,166.49,360.82,164.28,364,164.42Z" style="fill: #514869; transform-origin: 361.192px 167.62px;" id="elwd4nz6cjc9" class="animable"></path><path d="M293,141.76l-.55-1.12a1.21,1.21,0,0,1,.64-1.66,157.77,157.77,0,0,0,23.08-12.08,1.22,1.22,0,0,1,1.41.09l.27.22a1.2,1.2,0,0,1,.2,1.67c-2.34,3-10.54,12.28-23.84,13.56A1.24,1.24,0,0,1,293,141.76Z" style="fill: #514869; transform-origin: 305.313px 134.581px;" id="ela8hcrvcru17" class="animable"></path><path d="M352.63,183.61c-11.33,8.2-25.07,15.74-39.05,17.65-1.82.25-1.37,3.06.44,2.81,14.53-2,28.66-9.76,40.43-18.27,1.49-1.07-.33-3.26-1.82-2.19Z" style="fill: #514869; transform-origin: 333.712px 193.704px;" id="elpri9l0zbbnq" class="animable"></path><g id="el1naso5vf1wq"><g style="opacity: 0.3; transform-origin: 333.712px 193.704px;" class="animable" id="el3j1nqmudxok"><path d="M352.63,183.61c-11.33,8.2-25.07,15.74-39.05,17.65-1.82.25-1.37,3.06.44,2.81,14.53-2,28.66-9.76,40.43-18.27,1.49-1.07-.33-3.26-1.82-2.19Z" style="fill: rgb(255, 255, 255); transform-origin: 333.712px 193.704px;" id="el18nh7kfsbh2" class="animable"></path></g></g><path d="M341.94,148.42c.34-4.33,2.34-8.76,6-11.16,1.53-1-.3-3.18-1.82-2.19-4.26,2.76-6.66,8.07-7.05,13.05-.14,1.82,2.69,2.12,2.83.3Z" style="fill: #514869; transform-origin: 343.791px 142.231px;" id="eldi0mwixcnko" class="animable"></path><path d="M352.38,158c-.3.33.46-.44.59-.57a23.69,23.69,0,0,1,2-1.7,16.73,16.73,0,0,1,7.49-3.15,1.42,1.42,0,0,0-.44-2.81,20.63,20.63,0,0,0-12,6.58c-1.23,1.35,1.1,3,2.32,1.65Z" style="fill: #514869; transform-origin: 356.667px 154.128px;" id="ell9d5r8i3cla" class="animable"></path><path d="M364,164.42l1.51,3.35s-4.33.68-7,2.95a.43.43,0,0,1-.68-.16l-.91-2.42a.73.73,0,0,1,.19-.79C358.06,166.49,360.82,164.28,364,164.42Z" style="fill: #514869; transform-origin: 361.192px 167.62px;" id="elzr64i0nvzes" class="animable"></path><path d="M341.94,148.42c.34-4.33,2.34-8.76,6-11.16,1.53-1-.3-3.18-1.82-2.19-4.26,2.76-6.66,8.07-7.05,13.05-.14,1.82,2.69,2.12,2.83.3Z" style="fill: #514869; transform-origin: 343.791px 142.231px;" id="elsi53v9vswk" class="animable"></path><path d="M352.38,158c-.3.33.46-.44.59-.57a23.69,23.69,0,0,1,2-1.7,16.73,16.73,0,0,1,7.49-3.15,1.42,1.42,0,0,0-.44-2.81,20.63,20.63,0,0,0-12,6.58c-1.23,1.35,1.1,3,2.32,1.65Z" style="fill: #514869; transform-origin: 356.667px 154.128px;" id="eldjay67ivb6" class="animable"></path><g id="elts26r88jibh"><g style="opacity: 0.3; transform-origin: 352.287px 152.822px;" class="animable" id="eluewggxh9d2"><path d="M364,164.42l1.51,3.35s-4.33.68-7,2.95a.43.43,0,0,1-.68-.16l-.91-2.42a.73.73,0,0,1,.19-.79C358.06,166.49,360.82,164.28,364,164.42Z" style="fill: rgb(255, 255, 255); transform-origin: 361.192px 167.62px;" id="ell9cpd79z76f" class="animable"></path><path d="M341.94,148.42c.34-4.33,2.34-8.76,6-11.16,1.53-1-.3-3.18-1.82-2.19-4.26,2.76-6.66,8.07-7.05,13.05-.14,1.82,2.69,2.12,2.83.3Z" style="fill: rgb(255, 255, 255); transform-origin: 343.791px 142.231px;" id="elcys2xauwre" class="animable"></path><path d="M352.38,158c-.3.33.46-.44.59-.57a23.69,23.69,0,0,1,2-1.7,16.73,16.73,0,0,1,7.49-3.15,1.42,1.42,0,0,0-.44-2.81,20.63,20.63,0,0,0-12,6.58c-1.23,1.35,1.1,3,2.32,1.65Z" style="fill: rgb(255, 255, 255); transform-origin: 356.667px 154.128px;" id="ellj7gt1s2g7" class="animable"></path></g></g><path d="M329.2,128.42a2.52,2.52,0,0,0-2,1.4c-.6,1.58,1.23,3.73,4.09,4.81s5.65.67,6.25-.91c.33-.89-.12-1.95-1.06-2.91A47.2,47.2,0,0,0,329.2,128.42Z" style="fill: #514869; transform-origin: 332.367px 131.827px;" id="elvz3y1fd4dd" class="animable"></path><path d="M353.4,308.41c7.05-1.15,14-4,20.22-7.35,1.21-.64.34-2.59-.87-1.94-6.13,3.23-12.8,6.06-19.68,7.18a1.07,1.07,0,0,0,.33,2.11Z" style="fill: #514869; transform-origin: 363.217px 303.702px;" id="el6llmdgbbrzg" class="animable"></path><path d="M332.22,258.91a69.81,69.81,0,0,0,24.24-8c1.64-.91.42-3.58-1.24-2.66a67.23,67.23,0,0,1-23.48,7.8c-1.88.24-1.39,3.13.48,2.89Z" style="fill: #514869; transform-origin: 343.893px 253.507px;" id="el4a2q6kfyb1c" class="animable"></path><path d="M342,280.32a65.09,65.09,0,0,0,20.45-8.85c1.55-1,.13-3.44-1.42-2.46a62.7,62.7,0,0,1-19.75,8.56c-1.79.39-1.06,3.14.72,2.75Z" style="fill: #514869; transform-origin: 351.684px 274.57px;" id="elddi3b9uogrp" class="animable"></path><g id="elbrt1ayyekpt"><g style="opacity: 0.3; transform-origin: 352.376px 278.237px;" class="animable" id="elkqy6i2j0z5k"><path d="M353.4,308.41c7.05-1.15,14-4,20.22-7.35,1.21-.64.34-2.59-.87-1.94-6.13,3.23-12.8,6.06-19.68,7.18a1.07,1.07,0,0,0,.33,2.11Z" style="fill: rgb(255, 255, 255); transform-origin: 363.217px 303.702px;" id="el77oqfwnpkzf" class="animable"></path><path d="M332.22,258.91a69.81,69.81,0,0,0,24.24-8c1.64-.91.42-3.58-1.24-2.66a67.23,67.23,0,0,1-23.48,7.8c-1.88.24-1.39,3.13.48,2.89Z" style="fill: rgb(255, 255, 255); transform-origin: 343.893px 253.507px;" id="elpkx2p6mcz9q" class="animable"></path><path d="M342,280.32a65.09,65.09,0,0,0,20.45-8.85c1.55-1,.13-3.44-1.42-2.46a62.7,62.7,0,0,1-19.75,8.56c-1.79.39-1.06,3.14.72,2.75Z" style="fill: rgb(255, 255, 255); transform-origin: 351.684px 274.57px;" id="eljzkff2sgulm" class="animable"></path></g></g><path d="M357.87,248.57A67.42,67.42,0,0,0,378.63,235c1.32-1.25-.49-3.45-1.82-2.18A65,65,0,0,1,356.7,246c-1.7.69-.53,3.29,1.17,2.59Z" style="fill: #514869; transform-origin: 367.479px 240.573px;" id="elg2gq7rized4" class="animable"></path><path d="M370.85,267.14A65.21,65.21,0,0,0,389.53,255c1.36-1.22-.45-3.42-1.82-2.19a62.72,62.72,0,0,1-18,11.75c-1.7.68-.53,3.27,1.17,2.59Z" style="fill: #514869; transform-origin: 379.446px 259.855px;" id="elphqt5f9eth" class="animable"></path><g id="eljivj2oeowlm"><g style="opacity: 0.3; transform-origin: 372.941px 249.85px;" class="animable" id="el28n0xe1n3aa"><path d="M357.87,248.57A67.42,67.42,0,0,0,378.63,235c1.32-1.25-.49-3.45-1.82-2.18A65,65,0,0,1,356.7,246c-1.7.69-.53,3.29,1.17,2.59Z" style="fill: rgb(255, 255, 255); transform-origin: 367.479px 240.573px;" id="eli4wrq68fz6g" class="animable"></path><path d="M370.85,267.14A65.21,65.21,0,0,0,389.53,255c1.36-1.22-.45-3.42-1.82-2.19a62.72,62.72,0,0,1-18,11.75c-1.7.68-.53,3.27,1.17,2.59Z" style="fill: rgb(255, 255, 255); transform-origin: 379.446px 259.855px;" id="el4ug6tv76b1d" class="animable"></path></g></g><path d="M405.27,286.47a64,64,0,0,0-6.92-20.5c-.68-1.18-2.59-.23-1.91,1a61.87,61.87,0,0,1,6.74,19.95,1.07,1.07,0,0,0,2.09-.42Z" style="fill: #514869; transform-origin: 400.786px 276.56px;" id="elhrq92zff8da" class="animable"></path><g id="elfe4wfnvtp4q"><g style="opacity: 0.3; transform-origin: 400.786px 276.56px;" class="animable" id="ely69c57xnlt"><path d="M405.27,286.47a64,64,0,0,0-6.92-20.5c-.68-1.18-2.59-.23-1.91,1a61.87,61.87,0,0,1,6.74,19.95,1.07,1.07,0,0,0,2.09-.42Z" style="fill: rgb(255, 255, 255); transform-origin: 400.786px 276.56px;" id="elmfwfub616x" class="animable"></path></g></g><g id="eltypxml5wysl"><rect x="364.43" y="160.41" width="5.45" height="10.11" rx="1.62" style="fill: #514869; transform-origin: 367.155px 165.465px; transform: rotate(-19.31deg);" class="animable" id="ellce0nrs1rmb"></rect></g><g id="elnlagm8cblcm"><rect x="365.02" y="161.05" width="4.68" height="8.68" rx="1.62" style="fill: rgb(38, 50, 56); transform-origin: 367.36px 165.39px; transform: rotate(-19.31deg);" class="animable" id="elokix3e6z3"></rect></g><path d="M310.28,180.48a97.59,97.59,0,0,0-4.32,20c-.2,2.46-.58,6.42,1.58,8.23,2.7,2.27,6.21-.81,8.18-2.6,1.35-1.24-.59-3.31-2-2.08-1.6,1.46-4.27,4.25-4.95.92-.62-3,.17-6.59.71-9.55A125.35,125.35,0,0,1,313,181.29a1.42,1.42,0,0,0-2.73-.81Z" style="fill: #514869; transform-origin: 310.988px 194.487px;" id="eldam7ucgxucb" class="animable"></path><g id="elathgv35hlb5"><g style="opacity: 0.3; transform-origin: 311.018px 197.11px;" class="animable" id="el39a42hhglz3"><path d="M307.7,189.94a4,4,0,0,0,2.84.63c.36-1.58.75-3.16,1.17-4.72a4.31,4.31,0,0,1-2.78-.73C308.49,186.71,308.07,188.32,307.7,189.94Z" id="el0irwnoz45cz" class="animable" style="transform-origin: 309.705px 187.869px;"></path><path d="M306.72,194.77c-.26,1.5-.47,3-.63,4.52a3.69,3.69,0,0,0,2.71.43c.2-1.48.48-2.94.73-4.28l0-.18A6.38,6.38,0,0,1,306.72,194.77Z" id="elsl5n33sdf9j" class="animable" style="transform-origin: 307.81px 197.291px;"></path><path d="M307.54,208.75a3.72,3.72,0,0,0,.49.35,9.94,9.94,0,0,0,2.11-2.55c-.6,0-1.09-.39-1.32-1.56,0-.11,0-.23-.06-.35a3.12,3.12,0,0,1-2.91,0A5.76,5.76,0,0,0,307.54,208.75Z" id="elhcepwzqq8nc" class="animable" style="transform-origin: 307.995px 206.87px;"></path><path d="M315,206.8l.73-.65c1.35-1.24-.59-3.31-2-2.08l-.35.33A4.13,4.13,0,0,1,315,206.8Z" id="eldq2pkfk1qbl" class="animable" style="transform-origin: 314.783px 205.247px;"></path></g></g><path d="M321.69,162.17l-1-2.29a2.39,2.39,0,0,0-3.17-1.2l-6.31,2.85a2.4,2.4,0,0,0-1.2,3.17l1,2.29-1.2.54a2.39,2.39,0,0,0-1.19,3.17l3.48,7.71a2.89,2.89,0,0,0,3.83,1.44l12.16-5.49a2.89,2.89,0,0,0,1.44-3.83l-3.48-7.71a2.39,2.39,0,0,0-3.17-1.19Z" style="fill: rgb(38, 50, 56); transform-origin: 319.097px 169.288px;" id="elbb08zpji0sh" class="animable"></path><path d="M318.44,163.63l-1-2.29a2.41,2.41,0,0,0-3.18-1.19l-6.3,2.84a2.4,2.4,0,0,0-1.2,3.18l1,2.29-1.19.54a2.39,2.39,0,0,0-1.2,3.17l3.48,7.7a2.89,2.89,0,0,0,3.83,1.45l12.16-5.5a2.89,2.89,0,0,0,1.45-3.83l-3.48-7.7a2.4,2.4,0,0,0-3.17-1.2Z" style="fill: rgb(38, 50, 56); transform-origin: 315.852px 170.757px;" id="elr5aa446j6v" class="animable"></path><g id="elbxwmylgngso"><path d="M318.44,163.63l-1-2.29a2.41,2.41,0,0,0-3.18-1.19l-6.3,2.84a2.4,2.4,0,0,0-1.2,3.18l1,2.29-1.19.54a2.39,2.39,0,0,0-1.2,3.17l3.48,7.7a2.89,2.89,0,0,0,3.83,1.45l12.16-5.5a2.89,2.89,0,0,0,1.45-3.83l-3.48-7.7a2.4,2.4,0,0,0-3.17-1.2Z" style="fill: rgb(255, 255, 255); opacity: 0.5; transform-origin: 315.852px 170.757px;" class="animable" id="elqykzxmeu8ld"></path></g><path d="M323.29,174.32,312,179.41a.71.71,0,0,1-.94-.36h0a.71.71,0,0,1,.36-.94L322.71,173a.72.72,0,0,1,.94.35h0A.73.73,0,0,1,323.29,174.32Z" style="fill: #514869; transform-origin: 317.357px 176.206px;" id="elkw5huduz8o" class="animable"></path><path d="M314.39,172.81a2.28,2.28,0,1,0-1.88-4.15l-.65.29a2.28,2.28,0,1,0,1.88,4.16Z" style="fill: #514869; transform-origin: 313.165px 170.865px;" id="elyp7bu7gqn6" class="animable"></path><g id="elpamqgjw14j"><path d="M314.88,170.09a2.28,2.28,0,1,1-3-1.14A2.28,2.28,0,0,1,314.88,170.09Z" style="fill: rgb(255, 255, 255); opacity: 0.5; transform-origin: 312.805px 171.034px;" class="animable" id="elz9xskiemtj"></path></g><path d="M320.25,170.16a2.28,2.28,0,0,0-1.87-4.15l-.65.29a2.28,2.28,0,0,0,1.88,4.16Z" style="fill: #514869; transform-origin: 318.929px 168.262px;" id="elq0olkndf1n" class="animable"></path><g id="elufipx0m7r1"><path d="M320.75,167.44a2.28,2.28,0,1,1-3-1.14A2.28,2.28,0,0,1,320.75,167.44Z" style="fill: rgb(255, 255, 255); opacity: 0.5; transform-origin: 318.675px 168.384px;" class="animable" id="elcok8e6t2e1o"></path></g><path d="M327.55,175.13a97,97,0,0,0,17.55,10.58c2.26,1,5.89,2.64,8.3,1.18,3-1.82,1.25-6.14.19-8.58a1.42,1.42,0,0,0-2.59,1.17c.86,2,2.63,5.42-.74,5-3-.4-6.18-2.31-8.8-3.77a124.25,124.25,0,0,1-12.27-7.89,1.42,1.42,0,0,0-1.64,2.32Z" style="fill: #514869; transform-origin: 341.009px 180.014px;" id="el5ng3fwexqqn" class="animable"></path><g id="eleuasirll2tf"><g style="opacity: 0.3; transform-origin: 342.745px 181.504px;" class="animable" id="elhifypjbatdv"><path d="M335.66,180.64a4,4,0,0,0,1.52-2.48c-1.38-.85-2.75-1.73-4.09-2.64a4.3,4.3,0,0,1-1.6,2.4Q333.55,179.32,335.66,180.64Z" id="el9c176xcpex" class="animable" style="transform-origin: 334.335px 178.08px;"></path><path d="M339.91,183.13q2,1.11,4.07,2.06a3.68,3.68,0,0,0,1.29-2.42c-1.34-.66-2.63-1.41-3.81-2.07l-.17-.1A6.17,6.17,0,0,1,339.91,183.13Z" id="eluz4rm417aul" class="animable" style="transform-origin: 342.59px 182.895px;"></path><path d="M353.4,186.89a4.73,4.73,0,0,0,.49-.35,10,10,0,0,0-1.73-2.82c-.18.57-.72.9-1.9.75l-.35-.07a3.19,3.19,0,0,1-1,2.76A5.8,5.8,0,0,0,353.4,186.89Z" id="el0kvnfuidfj9i" class="animable" style="transform-origin: 351.4px 185.604px;"></path><path d="M354,179.21c-.13-.32-.26-.62-.38-.9a1.42,1.42,0,0,0-2.59,1.17c.06.14.12.29.19.44A4.15,4.15,0,0,1,354,179.21Z" id="el78ndkyniglg" class="animable" style="transform-origin: 352.452px 178.697px;"></path></g></g><path d="M255.75,192.86c.83-1,.77-3.88.71-5.18-.25-5.5-7.85-2.58-7.85-2.58l-3.73.05a2.77,2.77,0,0,0-2.54,2.53l-.52,3.63a2.89,2.89,0,0,0,2.17,3.4l3.21.48a5.72,5.72,0,0,0,2.78-.27S254.79,194.05,255.75,192.86Z" style="fill: #514869; transform-origin: 249.126px 189.79px;" id="elsz4jd0xx5t" class="animable"></path><g id="ellqz4dmxe3y9"><path d="M255.75,192.86c.83-1,.77-3.88.71-5.18-.25-5.5-7.85-2.58-7.85-2.58l-3.73.05a2.77,2.77,0,0,0-2.54,2.53l-.52,3.63a2.89,2.89,0,0,0,2.17,3.4l3.21.48a5.72,5.72,0,0,0,2.78-.27S254.79,194.05,255.75,192.86Z" style="fill: rgb(255, 255, 255); opacity: 0.3; transform-origin: 249.126px 189.79px;" class="animable" id="elk7ajfpsyw2o"></path></g><path d="M369,173.71c-.88-1-3.72-1.33-5-1.46-5.47-.57-3.71,7.38-3.71,7.38l-.5,3.69a2.78,2.78,0,0,0,2.13,2.9l3.51,1.05a2.89,2.89,0,0,0,3.68-1.64l1-3.11a5.85,5.85,0,0,0,.14-2.79S370,174.85,369,173.71Z" style="fill: #514869; transform-origin: 365.07px 179.834px;" id="eld7ci1aec6kd" class="animable"></path><g id="eldos8uhqj8eu"><path d="M369,173.71c-.88-1-3.72-1.33-5-1.46-5.47-.57-3.71,7.38-3.71,7.38l-.5,3.69a2.78,2.78,0,0,0,2.13,2.9l3.51,1.05a2.89,2.89,0,0,0,3.68-1.64l1-3.11a5.85,5.85,0,0,0,.14-2.79S370,174.85,369,173.71Z" style="fill: rgb(255, 255, 255); opacity: 0.3; transform-origin: 365.07px 179.834px;" class="animable" id="elqrifniwd8jh"></path></g><path d="M310.31,116.61a5.12,5.12,0,1,1-5.62-8.56l1.33-.87a5.12,5.12,0,1,1,5.62,8.55Z" style="fill: rgb(38, 50, 56); transform-origin: 308.251px 111.836px;" id="eln03gdix7qro" class="animable"></path><g id="elh5f21l20p0b"><path d="M310.31,116.61a5.12,5.12,0,1,1-5.62-8.56l1.33-.87a5.12,5.12,0,1,1,5.62,8.55Z" style="fill: rgb(255, 255, 255); opacity: 0.3; transform-origin: 308.251px 111.836px;" class="animable" id="el9d5pbo5jbff"></path></g><g id="elatb2s2hodeb"><path d="M304.55,114.26a5.12,5.12,0,1,0,1.47-7.08A5.11,5.11,0,0,0,304.55,114.26Z" style="fill: rgb(255, 255, 255); opacity: 0.3; transform-origin: 308.833px 111.457px;" class="animable" id="elil8g4tg7hd8"></path></g><polygon points="302.63 133.83 302.03 133.25 312.09 122.61 308.98 111.27 309.79 111.05 313.02 122.85 302.63 133.83" style="fill: rgb(38, 50, 56); transform-origin: 307.525px 122.44px;" id="elxylj25k84uo" class="animable"></polygon><g id="el84qom0x5i7v"><g style="opacity: 0.4; transform-origin: 307.525px 122.44px;" class="animable" id="el2gop7b8ikm6"><polygon points="302.63 133.83 302.03 133.25 312.09 122.61 308.98 111.27 309.79 111.05 313.02 122.85 302.63 133.83" style="fill: rgb(255, 255, 255); transform-origin: 307.525px 122.44px;" id="elnq52limyh5" class="animable"></polygon></g></g><path d="M306.11,113.24a3.25,3.25,0,1,0,.93-4.5A3.25,3.25,0,0,0,306.11,113.24Z" style="fill: #514869; transform-origin: 308.826px 111.455px;" id="elprkk34ltz7" class="animable"></path><path d="M306.67,112.94a3.25,3.25,0,1,0,.93-4.5A3.24,3.24,0,0,0,306.67,112.94Z" style="fill: #514869; transform-origin: 309.384px 111.155px;" id="el7m58yj6l5dj" class="animable"></path><g id="elsqgursdxocq"><path d="M306.67,112.94a3.25,3.25,0,1,0,.93-4.5A3.24,3.24,0,0,0,306.67,112.94Z" style="fill: rgb(255, 255, 255); opacity: 0.5; transform-origin: 309.384px 111.155px;" class="animable" id="elvbfk23f0uym"></path></g><path d="M311.25,123.56a1.29,1.29,0,1,0,.37-1.79A1.29,1.29,0,0,0,311.25,123.56Z" style="fill: #514869; transform-origin: 312.327px 122.849px;" id="elyuen7nqh8hp" class="animable"></path><path d="M311.47,123.44a1.3,1.3,0,1,0,.38-1.79A1.29,1.29,0,0,0,311.47,123.44Z" style="fill: #514869; transform-origin: 312.561px 122.737px;" id="elji488rjb7y" class="animable"></path><g id="el6ct6bkkudp9"><path d="M311.47,123.44a1.3,1.3,0,1,0,.38-1.79A1.29,1.29,0,0,0,311.47,123.44Z" style="fill: rgb(255, 255, 255); opacity: 0.3; transform-origin: 312.561px 122.737px;" class="animable" id="elx7u1m22hqob"></path></g><g id="elh35659o61k"><rect x="295.3" y="133.77" width="8.3" height="2.63" rx="1.3" style="fill: #514869; transform-origin: 299.45px 135.085px; transform: rotate(-28.25deg);" class="animable" id="elp5bdmjwm52n"></rect></g><g id="elj8hbe39cpsl"><path d="M295.87,134.17h5.7a1.3,1.3,0,0,1,1.3,1.3v0a1.3,1.3,0,0,1-1.3,1.3h-5.71a1.29,1.29,0,0,1-1.29-1.29v0a1.3,1.3,0,0,1,1.3-1.3Z" style="fill: #514869; transform-origin: 298.72px 135.47px; transform: rotate(-28.25deg);" class="animable" id="eljy70dccwe7b"></path></g><g id="elifom0iv4doj"><path d="M295.87,134.17h5.7a1.3,1.3,0,0,1,1.3,1.3v0a1.3,1.3,0,0,1-1.3,1.3h-5.71a1.29,1.29,0,0,1-1.29-1.29v0a1.3,1.3,0,0,1,1.3-1.3Z" style="fill: rgb(255, 255, 255); opacity: 0.3; transform-origin: 298.72px 135.47px; transform: rotate(-28.25deg);" class="animable" id="elzghktxu44h"></path></g></g><g id="freepik--character-1--inject-105" class="animable" style="transform-origin: 141.384px 261.025px;"><path d="M81.62,238.83a5.62,5.62,0,0,1-6-5.22l-3.88-56a5.62,5.62,0,0,1,5.21-6l51.24-3.55a5.62,5.62,0,0,1,6,5.22l3.88,56a5.62,5.62,0,0,1-5.22,6v.05a5.61,5.61,0,0,1,6,5.21L140,257.7a5.62,5.62,0,0,1-5.22,6l-51.23,3.54a5.62,5.62,0,0,1-6-5.21l-1.18-17.16a5.61,5.61,0,0,1,5.22-6Z" style="fill: rgb(38, 50, 56); transform-origin: 105.87px 217.65px;" id="elza47ydj6i4" class="animable"></path><g id="el4upf8supio3"><path d="M81.62,238.83a5.62,5.62,0,0,1-6-5.22l-3.88-56a5.62,5.62,0,0,1,5.21-6l51.24-3.55a5.62,5.62,0,0,1,6,5.22l3.88,56a5.62,5.62,0,0,1-5.22,6v.05a5.61,5.61,0,0,1,6,5.21L140,257.7a5.62,5.62,0,0,1-5.22,6l-51.23,3.54a5.62,5.62,0,0,1-6-5.21l-1.18-17.16a5.61,5.61,0,0,1,5.22-6Z" style="fill: rgb(255, 255, 255); opacity: 0.3; transform-origin: 105.87px 217.65px;" class="animable" id="elopbkbigbnf"></path></g><path d="M81.62,238.83a5.62,5.62,0,0,1-6-5.22l-3.88-56a5.62,5.62,0,0,1,5.21-6l17.82-1.23a5.61,5.61,0,0,1,6,5.22l3.88,56a5.62,5.62,0,0,1-5.22,6v0a5.62,5.62,0,0,1,6,5.22L106.62,260a5.62,5.62,0,0,1-5.22,6l-17.81,1.23a5.62,5.62,0,0,1-6-5.21l-1.18-17.16a5.61,5.61,0,0,1,5.22-6Z" style="fill: rgb(38, 50, 56); transform-origin: 89.18px 218.805px;" id="elm36r7am4c1s" class="animable"></path><g id="elzgiwsavwdnl"><path d="M81.62,238.83a5.62,5.62,0,0,1-6-5.22l-3.88-56a5.62,5.62,0,0,1,5.21-6l17.82-1.23a5.61,5.61,0,0,1,6,5.22l3.88,56a5.62,5.62,0,0,1-5.22,6v0a5.62,5.62,0,0,1,6,5.22L106.62,260a5.62,5.62,0,0,1-5.22,6l-17.81,1.23a5.62,5.62,0,0,1-6-5.21l-1.18-17.16a5.61,5.61,0,0,1,5.22-6Z" style="fill: rgb(255, 255, 255); opacity: 0.6; transform-origin: 89.18px 218.805px;" class="animable" id="el661n9iupkov"></path></g><path d="M138.66,143.61h7.07c1.23,0,2.24,1.34,2.24,3s-1,3-2.23,3h-7.07c-1.23,0-2.23-1.34-2.24-3S137.43,143.61,138.66,143.61Z" style="fill: rgb(38, 50, 56); transform-origin: 142.2px 146.61px;" id="el64ffnybanqj" class="animable"></path><path d="M143.5,146.61c0,1.67,1,3,2.24,3s2.23-1.35,2.23-3-1-3-2.24-3S143.5,145,143.5,146.61Z" style="fill: #514869; transform-origin: 145.735px 146.61px;" id="elomwcar7lahe" class="animable"></path><g id="el7mpba4gg8wy"><path d="M143.5,146.61c0,1.67,1,3,2.24,3s2.23-1.35,2.23-3-1-3-2.24-3S143.5,145,143.5,146.61Z" style="fill: rgb(255, 255, 255); opacity: 0.4; transform-origin: 145.735px 146.61px;" class="animable" id="elilznjl6gudb"></path></g><path d="M143.64,146.61c0,1.33.8,2.41,1.79,2.41s1.78-1.08,1.78-2.41-.81-2.41-1.79-2.41S143.63,145.28,143.64,146.61Z" style="fill: #514869; transform-origin: 145.425px 146.61px;" id="elonvgh0ii3km" class="animable"></path><g id="elklqe7z53q8s"><path d="M144.89,145.4c0,.39.24.71.53.71a.65.65,0,0,0,.53-.72c0-.39-.24-.71-.53-.71S144.89,145,144.89,145.4Z" style="fill: rgb(255, 255, 255); opacity: 0.5; transform-origin: 145.422px 145.395px;" class="animable" id="elc036silisd8"></path></g><g id="eliww281x539g"><path d="M144.9,147.48c0,.4.23.71.52.71s.53-.32.53-.71-.24-.71-.53-.71S144.9,147.09,144.9,147.48Z" style="opacity: 0.2; transform-origin: 145.425px 147.48px;" class="animable" id="eldhzavsv9g4t"></path></g><path d="M142.79,180l-26.38,0a7.8,7.8,0,0,0-1.69-2.88,20.16,20.16,0,1,1,29.72,0A7.58,7.58,0,0,0,142.79,180Z" style="fill: #514869; transform-origin: 129.58px 161.668px;" id="el2suxfmoxqu" class="animable"></path><path d="M126.08,168.7c-.46,4.69-1.22,10.14-4.43,12.86a10.12,10.12,0,0,0,9.12,6.2c5,.17,4.1-3.82,3.2-5.92-2.22-2.35-1.29-5-.82-6.92Z" style="fill: rgb(255, 181, 115); transform-origin: 128.162px 178.233px;" id="elg7uumcadowr" class="animable"></path><g id="eltdeeyx77gh"><path d="M127.55,171c0-.3,0-.6.09-.89l5.5,4.85a11.41,11.41,0,0,0-.56,4C129.88,177.21,127.33,173.8,127.55,171Z" style="opacity: 0.2; transform-origin: 130.338px 174.535px;" class="animable" id="elctj33fppwpp"></path></g><path d="M124.08,161.93c1,6.17,1.29,9.83,4.75,12.73,5.2,4.35,12.57.79,13.42-5.54.77-5.71-1-14.85-7.35-16.75A8.45,8.45,0,0,0,124.08,161.93Z" style="fill: rgb(255, 181, 115); transform-origin: 133.183px 164.285px;" id="elks34xrlkn2" class="animable"></path><path d="M122.61,168.42a6,6,0,0,0,3.8,2.51c2.05.39,2.88-1.48,2.15-3.32-.66-1.65-2.52-3.85-4.5-3.41A2.66,2.66,0,0,0,122.61,168.42Z" style="fill: rgb(255, 139, 123); transform-origin: 125.433px 167.563px;" id="ely6yhgp4iyb" class="animable"></path><path d="M134,163c.05.5.36.89.69.85s.55-.46.5-1-.36-.89-.69-.86S134,162.48,134,163Z" style="fill: rgb(38, 50, 56); transform-origin: 134.599px 162.921px;" id="elb9pooimfj8" class="animable"></path><path d="M140.36,162.59c0,.51.36.89.69.86s.55-.46.5-1-.36-.89-.69-.86S140.3,162.09,140.36,162.59Z" style="fill: rgb(38, 50, 56); transform-origin: 140.954px 162.52px;" id="elabjv39spsxq" class="animable"></path><path d="M138.54,163.27a18.17,18.17,0,0,0,3.1,3.92,2.89,2.89,0,0,1-2.32.82Z" style="fill: rgb(237, 137, 62); transform-origin: 140.09px 165.647px;" id="el868mxcpehe5" class="animable"></path><path d="M132.77,160.15a.39.39,0,0,1-.14-.08.3.3,0,0,1,0-.42,2.93,2.93,0,0,1,2.53-1,.31.31,0,0,1,.25.34.29.29,0,0,1-.34.25h0a2.33,2.33,0,0,0-2,.8A.3.3,0,0,1,132.77,160.15Z" style="fill: rgb(38, 50, 56); transform-origin: 133.978px 159.395px;" id="elrdoy5k3bpgr" class="animable"></path><path d="M142.14,159.62a.32.32,0,0,1-.28-.07,2.39,2.39,0,0,0-2.07-.62.29.29,0,0,1-.36-.21.29.29,0,0,1,.2-.36,3,3,0,0,1,2.63.74.31.31,0,0,1,0,.43A.42.42,0,0,1,142.14,159.62Z" style="fill: rgb(38, 50, 56); transform-origin: 140.883px 158.964px;" id="eljzesh4wn1h" class="animable"></path><path d="M139.69,169a26.11,26.11,0,0,0-4.93,0,3.08,3.08,0,0,0,3.29,1.81A1.6,1.6,0,0,0,139.69,169Z" style="fill: rgb(38, 50, 56); transform-origin: 137.232px 169.865px;" id="el2npusctc5em" class="animable"></path><path d="M137.1,170a3.44,3.44,0,0,1,2.07.42,1.81,1.81,0,0,1-1.12.4,3.39,3.39,0,0,1-2.07-.42A1.87,1.87,0,0,1,137.1,170Z" style="fill: rgb(255, 86, 82); transform-origin: 137.575px 170.411px;" id="el6o5ddfpsu1d" class="animable"></path><path d="M139.53,169c-.08.24-.15.48-.51.58a18.61,18.61,0,0,1-3.22-.09,1.06,1.06,0,0,1-.88-.49A28.94,28.94,0,0,1,139.53,169Z" style="fill: rgb(255, 255, 255); transform-origin: 137.225px 169.26px;" id="elozdeqx4jr0i" class="animable"></path><path d="M140.61,153.84a1.38,1.38,0,0,1-1.43,2c-3-.41-8.56-.71-9.12,2.48-.76,4.4,3,13.39-3.46,13.56-3,.08-4.72-2.85-5.71-6.72-1.15-4.55-.94-10.36,4.46-13.69S138.56,149.93,140.61,153.84Z" style="fill: rgb(38, 50, 56); transform-origin: 130.545px 160.803px;" id="elckgdislunxh" class="animable"></path><path d="M132.94,177s-3.52-.21-7.89-4c0,0-1.16,6.55-4.08,8.1,0,0,3.08,8.54,10.77,7.24s2.47-7.09,2.47-7.09A4.42,4.42,0,0,1,132.94,177Z" style="fill: rgb(38, 50, 56); transform-origin: 128.455px 180.737px;" id="elh6kp3pr9cql" class="animable"></path><g id="elzhyrta4gfuc"><path d="M132.94,177s-3.52-.21-7.89-4c0,0-1.16,6.55-4.08,8.1,0,0,3.08,8.54,10.77,7.24s2.47-7.09,2.47-7.09A4.42,4.42,0,0,1,132.94,177Z" style="fill: rgb(255, 255, 255); opacity: 0.5; transform-origin: 128.455px 180.737px;" class="animable" id="elsjapzp0nw0a"></path></g><path d="M133,177.7c-3-.22-6-2.26-8.22-4.15-.65-.55.1-1.64.75-1.09,2.06,1.75,4.75,3.71,7.57,3.92a.66.66,0,0,1-.1,1.32Z" style="fill: #514869; transform-origin: 129.121px 175.006px;" id="elqw7z4depow" class="animable"></path><g id="elawo5l8b9pn8"><g style="opacity: 0.3; transform-origin: 129.121px 175.006px;" class="animable" id="eln2ra6n15n2"><path d="M133,177.7c-3-.22-6-2.26-8.22-4.15-.65-.55.1-1.64.75-1.09,2.06,1.75,4.75,3.71,7.57,3.92a.66.66,0,0,1-.1,1.32Z" style="fill: rgb(255, 255, 255); transform-origin: 129.121px 175.006px;" id="elavjo8cdwty" class="animable"></path></g></g><path d="M121.25,164.45c.29,2.74,1.17,3.75,3.53,3.5s3-1.41,2.74-4.15-1.17-3.75-3.53-3.51S121,161.7,121.25,164.45Z" style="fill: rgb(38, 50, 56); transform-origin: 124.387px 164.121px;" id="el9287f670ce" class="animable"></path><g id="elkm0icix8sij"><path d="M121.25,164.45c.29,2.74,1.17,3.75,3.53,3.5s3-1.41,2.74-4.15-1.17-3.75-3.53-3.51S121,161.7,121.25,164.45Z" style="fill: rgb(255, 255, 255); opacity: 0.5; transform-origin: 124.387px 164.121px;" class="animable" id="elpagu11skag"></path></g><polygon points="100.54 273.89 96.75 265.01 90.75 265.94 89.74 275.55 100.54 273.89" style="fill: rgb(38, 50, 56); transform-origin: 95.14px 270.28px;" id="elbl12hfyxeu4" class="animable"></polygon><g id="elkmtqh2gfg6n"><polygon points="97.85 267.58 96.75 265.01 90.75 265.94 90.46 268.75 97.85 267.58" style="opacity: 0.6; transform-origin: 94.155px 266.88px;" class="animable" id="el2iv3mfntpv4"></polygon></g><path d="M119.43,238.7a56.9,56.9,0,0,1,1.38,8.74c.6,6.34,1.24,15.64,8.16,21.77,13.1,11.62,48.43,7.55,55.6,15.68s-1,46.43-1,46.43L202,335.17s14.43-43.58,5.1-59.81c-10.14-17.61-53-24.49-56.49-32.08a40.18,40.18,0,0,1-3.65-14.08Z" style="fill: #514869; transform-origin: 164.835px 282.185px;" id="elu3jro7dufe" class="animable"></path><g id="elwas6ljsklj"><path d="M119.43,238.7a56.9,56.9,0,0,1,1.38,8.74c.6,6.34,1.24,15.64,8.16,21.77,13.1,11.62,48.43,7.55,55.6,15.68s-1,46.43-1,46.43L202,335.17s14.43-43.58,5.1-59.81c-10.14-17.61-53-24.49-56.49-32.08a40.18,40.18,0,0,1-3.65-14.08Z" style="fill: rgb(255, 255, 255); opacity: 0.7; transform-origin: 164.835px 282.185px;" class="animable" id="elbh1qcriykpm"></path></g><path d="M184.87,320.72l-7.07,43,.73.08,1.8-.81,1.58,1.19,1.81-.8,1.58,1.18,1.81-.8,1.58,1.18,1.8-.8,1.58,1.19,1.81-.81,1.58,1.19,1.81-.81,1.58,1.19,1.8-.8,1.58,1.18,1,.11s4.64-6.79-7.58-9.87l10-30.94S193.28,324.77,184.87,320.72Z" style="fill: #514869; transform-origin: 191.725px 343.65px;" id="el71tg0i6tszf" class="animable"></path><g id="elttmwkfd1h1"><path d="M184.87,320.72l-7.07,43,.73.08,1.8-.81,1.58,1.19,1.81-.8,1.58,1.18,1.81-.8,1.58,1.18,1.8-.8,1.58,1.19,1.81-.81,1.58,1.19,1.81-.81,1.58,1.19,1.8-.8,1.58,1.18,1,.11s4.64-6.79-7.58-9.87l10-30.94S193.28,324.77,184.87,320.72Z" style="fill: rgb(255, 255, 255); opacity: 0.5; transform-origin: 191.725px 343.65px;" class="animable" id="el8rztli9xqda"></path></g><path d="M178.53,363.79l-.73-.08,1.14-6.92,3.15,4.41,13.9,1.56,3.43-4.76c7.31,3.36,3.76,8.57,3.76,8.57l-1-.11-1.58-1.18-1.8.8-1.58-1.19-1.81.81-1.58-1.19-1.81.81-1.58-1.19-1.8.8-1.58-1.18-1.81.8-1.58-1.18-1.81.8L180.33,363Z" style="fill: rgb(38, 50, 56); transform-origin: 190.921px 361.68px;" id="elvcqg5bntxbb" class="animable"></path><path d="M205.49,326.82a63.76,63.76,0,0,1-21-5.11c-1.24-.57-.45-2.55.8-2a61.87,61.87,0,0,0,20.46,5,1.07,1.07,0,0,1-.24,2.12Z" style="fill: #514869; transform-origin: 195.242px 323.223px;" id="elv2pe0dmfun" class="animable"></path><g id="el20jy9if4jyt"><g style="opacity: 0.3; transform-origin: 195.242px 323.223px;" class="animable" id="el6esfej6rzl5"><path d="M205.49,326.82a63.76,63.76,0,0,1-21-5.11c-1.24-.57-.45-2.55.8-2a61.87,61.87,0,0,0,20.46,5,1.07,1.07,0,0,1-.24,2.12Z" style="fill: rgb(255, 255, 255); transform-origin: 195.242px 323.223px;" id="el7edjckmxqeb" class="animable"></path></g></g><g id="el56udjdrnlj"><path d="M137.65,252.44l-5.55.42L129.28,261c-2.83,8.13,6.26,8.2,6.26,8.2l4.75,5.71c7.94,2.36,17.56,3.28,25.92,4.39C162,268.61,137.65,252.44,137.65,252.44Z" style="opacity: 0.2; transform-origin: 147.472px 265.87px;" class="animable" id="el3zy98aezd3m"></path></g><path d="M113.21,236.05a57.25,57.25,0,0,1-2.4,8.52c-2.1,6-2.28,15.17,1.44,23.62,7,16,35.71,29.27,37.88,37.59s-16.39,41.82-16.39,41.82l14.55,10.57s29.57-43.07,25.9-59.59c-4.14-18.61-32.95-34.66-32.93-43s-.57-18.34-.57-18.34Z" style="fill: #514869; transform-origin: 141.914px 297.11px;" id="elmu5hi3dx6hk" class="animable"></path><g id="el6o5sdrx3oib"><path d="M113.21,236.05a57.25,57.25,0,0,1-2.4,8.52c-2.1,6-2.28,15.17,1.44,23.62,7,16,35.71,29.27,37.88,37.59s-16.39,41.82-16.39,41.82l14.55,10.57s29.57-43.07,25.9-59.59c-4.14-18.61-32.95-34.66-32.93-43s-.57-18.34-.57-18.34Z" style="fill: rgb(255, 255, 255); opacity: 0.7; transform-origin: 141.914px 297.11px;" class="animable" id="elqwln55rb7bl"></path></g><path d="M139.3,335.32l-20.71,38.32.66.32,2-.17,1.11,1.64,2-.18,1.1,1.64,2-.17,1.11,1.64,2-.18,1.11,1.64,2-.17,1.1,1.64,2-.17,1.11,1.63,2-.17,1.11,1.64.86.41s6.6-4.91-4-11.8l19.56-26S145.92,341.89,139.3,335.32Z" style="fill: #514869; transform-origin: 138.005px 359.975px;" id="el162xtdoukeh" class="animable"></path><g id="eljiijtlxivwq"><path d="M139.3,335.32l-20.71,38.32.66.32,2-.17,1.11,1.64,2-.18,1.1,1.64,2-.17,1.11,1.64,2-.18,1.11,1.64,2-.17,1.1,1.64,2-.17,1.11,1.63,2-.17,1.11,1.64.86.41s6.6-4.91-4-11.8l19.56-26S145.92,341.89,139.3,335.32Z" style="fill: rgb(255, 255, 255); opacity: 0.5; transform-origin: 138.005px 359.975px;" class="animable" id="ellpdj0569vhj"></path></g><path d="M119.25,374l-.66-.32,3.33-6.16,1.54,5.19,12.63,6,4.8-3.38c5.82,5.56.76,9.32.76,9.32l-.86-.41-1.11-1.64-2,.17-1.11-1.63-2,.17-1.1-1.64-2,.17-1.11-1.64-2,.18-1.11-1.64-2,.17-1.1-1.64-2,.18-1.11-1.64Z" style="fill: rgb(38, 50, 56); transform-origin: 131.14px 376.085px;" id="elts2lji9cd2n" class="animable"></path><path d="M156.8,347.81a63.79,63.79,0,0,1-18.2-11.69c-1-.94.4-2.56,1.39-1.61a62.16,62.16,0,0,0,17.73,11.37c1.25.56.33,2.49-.92,1.93Z" style="fill: #514869; transform-origin: 148.285px 341.066px;" id="elsw7q0z4ppa" class="animable"></path><g id="el2ir59plvlen"><g style="opacity: 0.3; transform-origin: 148.285px 341.066px;" class="animable" id="elfulmj37809n"><path d="M156.8,347.81a63.79,63.79,0,0,1-18.2-11.69c-1-.94.4-2.56,1.39-1.61a62.16,62.16,0,0,0,17.73,11.37c1.25.56.33,2.49-.92,1.93Z" style="fill: rgb(255, 255, 255); transform-origin: 148.285px 341.066px;" id="els4vv6g1s8q" class="animable"></path></g></g><path d="M165,202.87c-4.06-6.41-13.79-26.63-21.29-21.6s8.06,28.4,15.59,35.22c5.19,4.71,18.41,9.09,26.09,11.35a5,5,0,0,0,6.41-4.27l.22-2.1a5,5,0,0,0-3.69-5.39C181.91,214.39,169.76,210.34,165,202.87Z" style="fill: #514869; transform-origin: 166.885px 204.263px;" id="eliu0qjxmmk1m" class="animable"></path><g id="el36ibga2imlx"><path d="M165,202.87c-4.06-6.41-13.79-26.63-21.29-21.6s8.06,28.4,15.59,35.22c5.19,4.71,18.41,9.09,26.09,11.35a5,5,0,0,0,6.41-4.27l.22-2.1a5,5,0,0,0-3.69-5.39C181.91,214.39,169.76,210.34,165,202.87Z" style="fill: rgb(255, 255, 255); opacity: 0.8; transform-origin: 166.885px 204.263px;" class="animable" id="elyr94m6hzp0d"></path></g><path d="M163.89,201.89c-4.27.75-8.5,3.17-10.53,7.07-.85,1.62-3.19,0-2.35-1.6,2.34-4.5,7.4-7.4,12.31-8.26,1.81-.31,2.38,2.48.57,2.79Z" style="fill: #514869; transform-origin: 157.913px 204.354px;" id="elyq0h9c3p6ad" class="animable"></path><path d="M174.42,211.37c.31-.33-.39.5-.51.64a21.78,21.78,0,0,0-1.49,2.2A16.71,16.71,0,0,0,170,222a1.42,1.42,0,0,1-2.84-.17,20.64,20.64,0,0,1,5.4-12.58c1.23-1.35,3.08.81,1.86,2.15Z" style="fill: #514869; transform-origin: 170.989px 216.079px;" id="elkc58vwtyus" class="animable"></path><g id="elmrc6t16u5tq"><g style="opacity: 0.3; transform-origin: 157.913px 204.354px;" class="animable" id="elbxrrko1681w"><path d="M163.89,201.89c-4.27.75-8.5,3.17-10.53,7.07-.85,1.62-3.19,0-2.35-1.6,2.34-4.5,7.4-7.4,12.31-8.26,1.81-.31,2.38,2.48.57,2.79Z" style="fill: rgb(255, 255, 255); transform-origin: 157.913px 204.354px;" id="elrzvgfhi259j" class="animable"></path></g></g><g id="elzgu2ph4tk58"><g style="opacity: 0.3; transform-origin: 170.989px 216.079px;" class="animable" id="elzba7jgs4sie"><path d="M174.42,211.37c.31-.33-.39.5-.51.64a21.78,21.78,0,0,0-1.49,2.2A16.71,16.71,0,0,0,170,222a1.42,1.42,0,0,1-2.84-.17,20.64,20.64,0,0,1,5.4-12.58c1.23-1.35,3.08.81,1.86,2.15Z" style="fill: rgb(255, 255, 255); transform-origin: 170.989px 216.079px;" id="elg7eh150uxn" class="animable"></path></g></g><g id="elc9uvuff05hj"><path d="M142.14,188.85l3.34-5.62,2.24.76s10,13.75,1.41,19.72C145.9,198.68,143.13,193.23,142.14,188.85Z" style="opacity: 0.2; transform-origin: 147.377px 193.47px;" class="animable" id="el42jgqqd7a5m"></path></g><path d="M202.34,219.44c.92.93,1.14,3.79,1.2,5.09.27,5.5-7.57,3.32-7.57,3.32l-3.71.3a2.78,2.78,0,0,1-2.78-2.28l-.86-3.55a2.89,2.89,0,0,1,1.83-3.6l3.15-.79a5.77,5.77,0,0,1,2.8,0S201.27,218.34,202.34,219.44Z" style="fill: #514869; transform-origin: 196.017px 223.017px;" id="elo0cr5uxho4c" class="animable"></path><g id="el3jksv29yt57"><path d="M202.34,219.44c.92.93,1.14,3.79,1.2,5.09.27,5.5-7.57,3.32-7.57,3.32l-3.71.3a2.78,2.78,0,0,1-2.78-2.28l-.86-3.55a2.89,2.89,0,0,1,1.83-3.6l3.15-.79a5.77,5.77,0,0,1,2.8,0S201.27,218.34,202.34,219.44Z" style="fill: rgb(255, 255, 255); opacity: 0.3; transform-origin: 196.017px 223.017px;" class="animable" id="eliknnh11jbdo"></path></g><path d="M142.63,180.75c-6.9-2.3-17.74-4.23-29.24.3a11,11,0,0,0-6.86,9.8c-.4,10.63-.56,32.84,3.44,56,0,0,26.62,3.62,43.51-3,0,0,4.09-14.66-3.42-32.13l.09-20.43A11,11,0,0,0,142.63,180.75Z" style="fill: #514869; transform-origin: 130.464px 213.071px;" id="el59egkkx4edl" class="animable"></path><path d="M113.75,180.92c11.36-4.35,22.05-2.45,28.88-.17a9.85,9.85,0,0,1,1,.37c3.38,3.33,5.38,8.49,6.56,13l-.08,17.56c7.51,17.47,3.42,32.13,3.42,32.13-16.89,6.63-43.51,3-43.51,3a262.42,262.42,0,0,1-3.53-37.35C125,188.72,118.27,182.66,113.75,180.92Z" style="fill: #514869; transform-origin: 130.566px 213.055px;" id="elrr2257pbhp" class="animable"></path><g id="elaothfoa38a"><path d="M113.75,180.92c11.36-4.35,22.05-2.45,28.88-.17a9.85,9.85,0,0,1,1,.37c3.38,3.33,5.38,8.49,6.56,13l-.08,17.56c7.51,17.47,3.42,32.13,3.42,32.13-16.89,6.63-43.51,3-43.51,3a262.42,262.42,0,0,1-3.53-37.35C125,188.72,118.27,182.66,113.75,180.92Z" style="fill: rgb(255, 255, 255); opacity: 0.7; transform-origin: 130.566px 213.055px;" class="animable" id="elxzswqzyw0zp"></path></g><g id="elinargtwcuui"><path d="M149.41,235l-3.71-.37s-3.21-1.55-5.59-1a5,5,0,0,0-2-2.63l-.54-.36a.39.39,0,0,0-.17-.39l-2.14-1.45a.75.75,0,0,0-.46-.11,61.25,61.25,0,0,1-8-7c1-1.06,0-3.12-1.46-2.32l-.38.23a22.47,22.47,0,0,1-4.7-8.67c-.1-.39-.19-.83-.29-1.3a1.44,1.44,0,0,0-.11-2.81l-.48-.07c-.67-3.41-1.51-7.69-2.67-11.65-1.82,3.77-5,8.48-10.31,14.39,0,1.23.07,2.5.13,3.8a1.18,1.18,0,0,0,.31-.08,55.25,55.25,0,0,0,3.63,8.78,33,33,0,0,0,5.93,7.05c-.07.17-.16.33-.23.49a1.44,1.44,0,0,0,2.38,1.5c2.17,1.92,4.5,3.8,6.74,5.53a1.62,1.62,0,0,0,.62,2l5.79,3.71a1.62,1.62,0,0,0,2-.25,5,5,0,0,0,3.84-1.06,2.49,2.49,0,0,0,.31.81c.86,1.27,5.58,2.54,5.58,2.54a5.78,5.78,0,0,0,2.75.5l3.24-.22a2.89,2.89,0,0,0,2.45-3.2l-.22-3.66A2.76,2.76,0,0,0,149.41,235Z" style="opacity: 0.2; transform-origin: 129.145px 219.961px;" class="animable" id="el8fc01vl1gtm"></path></g><path d="M126.89,204.31a3.37,3.37,0,1,1-.46-6.73l1-.07a3.37,3.37,0,1,1,.47,6.73Z" style="fill: rgb(38, 50, 56); transform-origin: 127.164px 200.91px;" id="elnc740xu7as" class="animable"></path><g id="elacjsncsdnsl"><path d="M124.34,201.11a3.37,3.37,0,1,0,3.13-3.6A3.37,3.37,0,0,0,124.34,201.11Z" style="fill: rgb(255, 255, 255); opacity: 0.5; transform-origin: 127.702px 200.872px;" class="animable" id="elc1eg8n1iyo"></path></g><path d="M126.12,201a1.59,1.59,0,1,0,1.48-1.69A1.59,1.59,0,0,0,126.12,201Z" style="fill: #514869; transform-origin: 127.707px 200.896px;" id="elekiblkaa2pk" class="animable"></path><g id="elp3rldsy9ehj"><path d="M123.69,191.7a3.37,3.37,0,1,0,3.13-3.6A3.37,3.37,0,0,0,123.69,191.7Z" style="fill: rgb(255, 255, 255); opacity: 0.5; transform-origin: 127.052px 191.462px;" class="animable" id="elmpsajk8bqd"></path></g><path d="M126.24,194.91a3.38,3.38,0,0,1-.47-6.74l1-.07a3.37,3.37,0,1,1,.47,6.73Z" style="fill: rgb(38, 50, 56); transform-origin: 126.558px 191.502px;" id="elfcv731puzp7" class="animable"></path><path d="M124.89,191.62a2.17,2.17,0,1,0,2-2.32A2.17,2.17,0,0,0,124.89,191.62Z" style="fill: #514869; transform-origin: 127.054px 191.464px;" id="eljbnyqpu2vc" class="animable"></path><path d="M110.62,245.41c13.87,1.85,29.53,2,42.75-3,1.72-.64,2.66,2,.95,2.69-13.74,5.13-29.87,5-44.27,3.06-1.81-.24-1.24-3,.57-2.79Z" style="fill: #514869; transform-origin: 132.084px 245.855px;" id="elshq5dbdjee" class="animable"></path><g id="elyu3da9g1eok"><g style="opacity: 0.3; transform-origin: 132.084px 245.855px;" class="animable" id="el6xb1kmdjs5w"><path d="M110.62,245.41c13.87,1.85,29.53,2,42.75-3,1.72-.64,2.66,2,.95,2.69-13.74,5.13-29.87,5-44.27,3.06-1.81-.24-1.24-3,.57-2.79Z" style="fill: rgb(255, 255, 255); transform-origin: 132.084px 245.855px;" id="elbwu5xdf0yyv" class="animable"></path></g></g><path d="M144.36,220.35A97.84,97.84,0,0,1,158.67,235c1.48,2,3.91,5.13,3,7.81-1.08,3.36-5.69,2.61-8.31,2.14a1.42,1.42,0,0,1,.55-2.79c2.13.38,5.87,1.32,4.68-1.86-1.08-2.87-3.65-5.49-5.68-7.71a125.3,125.3,0,0,0-10.47-10.14c-1.39-1.19.49-3.33,1.88-2.13Z" style="fill: #514869; transform-origin: 151.91px 232.667px;" id="elumggl7boybs" class="animable"></path><g id="el84cloe7wpfw"><g style="opacity: 0.3; transform-origin: 153.922px 234.33px;" class="animable" id="elacxi3cepgai"><path d="M151.57,227a4,4,0,0,1-2.07,2q-1.71-1.72-3.5-3.38a4.37,4.37,0,0,0,2-2.1Q149.8,225.24,151.57,227Z" id="el77l2lwczg2f" class="animable" style="transform-origin: 148.785px 226.26px;"></path><path d="M155,230.56q1.53,1.69,2.94,3.5a3.72,3.72,0,0,1-2.07,1.8c-1-1.15-2-2.24-2.89-3.24l-.13-.13A6.32,6.32,0,0,0,155,230.56Z" id="el8wecdl5ya9q" class="animable" style="transform-origin: 155.395px 233.21px;"></path><path d="M161.71,242.84a3,3,0,0,1-.23.55,9.64,9.64,0,0,1-3.14-1c.51-.3.71-.9.29-2,0-.11-.1-.21-.14-.32a3.15,3.15,0,0,0,2.46-1.57A5.81,5.81,0,0,1,161.71,242.84Z" id="elo2i1bid9luj" class="animable" style="transform-origin: 160.092px 240.945px;"></path><path d="M154.36,245.14l-1-.16a1.42,1.42,0,0,1,.55-2.79l.47.09A4.13,4.13,0,0,0,154.36,245.14Z" id="ele6hjky4gx2c" class="animable" style="transform-origin: 153.297px 243.652px;"></path></g></g><path d="M127.72,211.86l-.18-2.5a2.4,2.4,0,0,1,2.23-2.56l6.9-.48a2.4,2.4,0,0,1,2.56,2.23l.17,2.51,1.31-.1a2.4,2.4,0,0,1,2.56,2.23l.58,8.44a2.89,2.89,0,0,1-2.68,3.08l-13.32.93a2.91,2.91,0,0,1-3.09-2.69l-.58-8.44a2.4,2.4,0,0,1,2.23-2.55Z" style="fill: rgb(38, 50, 56); transform-origin: 134.016px 215.98px;" id="el6dmk88qg5ch" class="animable"></path><path d="M131.27,211.62l-.18-2.51a2.4,2.4,0,0,1,2.23-2.55l6.9-.48a2.4,2.4,0,0,1,2.56,2.22l.18,2.51,1.3-.09a2.39,2.39,0,0,1,2.56,2.22l.59,8.44a2.9,2.9,0,0,1-2.69,3.09l-13.32.92a2.89,2.89,0,0,1-3.08-2.69l-.59-8.43a2.4,2.4,0,0,1,2.23-2.56Z" style="fill: rgb(38, 50, 56); transform-origin: 137.57px 215.735px;" id="elzdkfck0n5ur" class="animable"></path><g id="elwpolwhcezo"><path d="M131.27,211.62l-.18-2.51a2.4,2.4,0,0,1,2.23-2.55l6.9-.48a2.4,2.4,0,0,1,2.56,2.22l.18,2.51,1.3-.09a2.39,2.39,0,0,1,2.56,2.22l.59,8.44a2.9,2.9,0,0,1-2.69,3.09l-13.32.92a2.89,2.89,0,0,1-3.08-2.69l-.59-8.43a2.4,2.4,0,0,1,2.23-2.56Z" style="fill: rgb(255, 255, 255); opacity: 0.5; transform-origin: 137.57px 215.735px;" class="animable" id="el5j0cz1m857x"></path></g><path d="M132.06,223.33l12.33-.86a.71.71,0,0,0,.66-.76h0a.7.7,0,0,0-.76-.66l-12.33.86a.7.7,0,0,0-.66.76h0A.72.72,0,0,0,132.06,223.33Z" style="fill: #514869; transform-origin: 138.175px 222.189px;" id="elr9ah58ta6dg" class="animable"></path><path d="M143.31,217.76a2.28,2.28,0,0,1-.32-4.55l.71-.05a2.28,2.28,0,0,1,.32,4.55Z" style="fill: #514869; transform-origin: 143.505px 215.46px;" id="elj7rw42s0yh" class="animable"></path><g id="elwy3na9z1xba"><path d="M141.58,215.59a2.28,2.28,0,1,0,2.12-2.43A2.28,2.28,0,0,0,141.58,215.59Z" style="fill: rgb(255, 255, 255); opacity: 0.5; transform-origin: 143.855px 215.435px;" class="animable" id="elczcv6t72gf7"></path></g><path d="M136.89,218.2a2.28,2.28,0,1,1-.32-4.55l.71-.05a2.28,2.28,0,0,1,.32,4.55Z" style="fill: #514869; transform-origin: 137.084px 215.9px;" id="el8zuxo0jakno" class="animable"></path><g id="elcjw7ggpssgc"><path d="M135.16,216a2.28,2.28,0,1,0,2.12-2.44A2.28,2.28,0,0,0,135.16,216Z" style="fill: rgb(255, 255, 255); opacity: 0.5; transform-origin: 137.434px 215.835px;" class="animable" id="elf9a1bbtcnx6"></path></g><path d="M129.3,226.63A97,97,0,0,1,117,243.06c-1.71,1.77-4.45,4.66-7.23,4.22-3.49-.54-3.48-5.21-3.42-7.87a1.42,1.42,0,0,1,2.84.1c0,2.17-.38,6,2.57,4.34,2.67-1.51,4.85-4.47,6.73-6.82a125.16,125.16,0,0,0,8.37-11.93,1.42,1.42,0,0,1,2.4,1.53Z" style="fill: #514869; transform-origin: 117.91px 235.883px;" id="el5pqxt4p557s" class="animable"></path><g id="elabx6hqhtk8"><g style="opacity: 0.3; transform-origin: 116.54px 238.181px;" class="animable" id="elbqlplwo67af"><path d="M123.87,234.79a4,4,0,0,1-2.34-1.72q1.44-2,2.79-4a4.31,4.31,0,0,0,2.38,1.62C125.79,232.08,124.85,233.45,123.87,234.79Z" id="elshebl4reylp" class="animable" style="transform-origin: 124.115px 231.93px;"></path><path d="M120.88,238.7q-1.44,1.78-3,3.45a3.66,3.66,0,0,1-2.11-1.76c1-1.12,1.9-2.3,2.75-3.36a1.34,1.34,0,0,1,.11-.14A6.29,6.29,0,0,0,120.88,238.7Z" id="elosdeg2e91r9" class="animable" style="transform-origin: 118.325px 239.52px;"></path><path d="M109.81,247.28a3.4,3.4,0,0,1-.59-.14,10.08,10.08,0,0,1,.54-3.26c.38.46,1,.56,2,0l.3-.19a3.17,3.17,0,0,0,1.93,2.19A5.83,5.83,0,0,1,109.81,247.28Z" id="el375w0e4b0sf" class="animable" style="transform-origin: 111.605px 245.491px;"></path><path d="M106.38,240.38c0-.34,0-.67,0-1a1.42,1.42,0,0,1,2.84.1c0,.16,0,.32,0,.48A4.2,4.2,0,0,0,106.38,240.38Z" id="elb8ro0pzuunp" class="animable" style="transform-origin: 107.8px 239.195px;"></path></g></g><path d="M122.26,208.73c-1.78-7.36-4.47-29.65-13.2-27.3s-1.51,29.49,3.42,38.37c3.4,6.13,14.5,14.53,21,19.15a5,5,0,0,0,7.44-2l.89-1.92a5,5,0,0,0-1.76-6.28C134.53,225.09,124.34,217.33,122.26,208.73Z" style="fill: #514869; transform-origin: 123.625px 210.564px;" id="elhvobb3z4yzv" class="animable"></path><g id="el997td03jfp"><path d="M122.26,208.73c-1.78-7.36-4.47-29.65-13.2-27.3s-1.51,29.49,3.42,38.37c3.4,6.13,14.5,14.53,21,19.15a5,5,0,0,0,7.44-2l.89-1.92a5,5,0,0,0-1.76-6.28C134.53,225.09,124.34,217.33,122.26,208.73Z" style="fill: rgb(255, 255, 255); opacity: 0.8; transform-origin: 123.625px 210.564px;" class="animable" id="eltj3mjuecln"></path></g><path d="M132,232.59l2.91,2.24s1.66-4.05,4.49-6.13a.42.42,0,0,0,0-.69l-2.14-1.44a.72.72,0,0,0-.81,0C135.37,227.3,132.59,229.47,132,232.59Z" style="fill: #514869; transform-origin: 135.79px 230.638px;" id="eldcb1r4aryiw" class="animable"></path><path d="M121.5,207.44c-4.28-.67-9.07.27-12.25,3.31-1.32,1.26-3-1-1.71-2.28,3.67-3.5,9.39-4.62,14.32-3.85,1.81.29,1.45,3.11-.36,2.82Z" style="fill: #514869; transform-origin: 115.064px 207.754px;" id="elp9j20pjcheq" class="animable"></path><path d="M128.42,219.81c.39-.21-.54.35-.69.45a21.93,21.93,0,0,0-2.13,1.6,16.78,16.78,0,0,0-4.79,6.56,1.42,1.42,0,0,1-2.63-1.08,20.57,20.57,0,0,1,9.17-10.16c1.6-.89,2.65,1.76,1.07,2.63Z" style="fill: #514869; transform-origin: 123.638px 223.151px;" id="elhvge9rrntxp" class="animable"></path><path d="M132,232.59l2.91,2.24s1.66-4.05,4.49-6.13a.42.42,0,0,0,0-.69l-2.14-1.44a.72.72,0,0,0-.81,0C135.37,227.3,132.59,229.47,132,232.59Z" style="fill: #514869; transform-origin: 135.79px 230.638px;" id="elrgh0ho8orx" class="animable"></path><path d="M121.5,207.44c-4.28-.67-9.07.27-12.25,3.31-1.32,1.26-3-1-1.71-2.28,3.67-3.5,9.39-4.62,14.32-3.85,1.81.29,1.45,3.11-.36,2.82Z" style="fill: #514869; transform-origin: 115.064px 207.754px;" id="el8m102sk4jx" class="animable"></path><path d="M128.42,219.81c.39-.21-.54.35-.69.45a21.93,21.93,0,0,0-2.13,1.6,16.78,16.78,0,0,0-4.79,6.56,1.42,1.42,0,0,1-2.63-1.08,20.57,20.57,0,0,1,9.17-10.16c1.6-.89,2.65,1.76,1.07,2.63Z" style="fill: #514869; transform-origin: 123.638px 223.151px;" id="el64an6grsff" class="animable"></path><g id="elkagmn4i80zg"><g style="opacity: 0.3; transform-origin: 123.329px 219.609px;" class="animable" id="elc6mdiem85e4"><path d="M132,232.59l2.91,2.24s1.66-4.05,4.49-6.13a.42.42,0,0,0,0-.69l-2.14-1.44a.72.72,0,0,0-.81,0C135.37,227.3,132.59,229.47,132,232.59Z" style="fill: rgb(255, 255, 255); transform-origin: 135.79px 230.638px;" id="elixpbwvx4bg" class="animable"></path><path d="M121.5,207.44c-4.28-.67-9.07.27-12.25,3.31-1.32,1.26-3-1-1.71-2.28,3.67-3.5,9.39-4.62,14.32-3.85,1.81.29,1.45,3.11-.36,2.82Z" style="fill: rgb(255, 255, 255); transform-origin: 115.064px 207.754px;" id="el4f7mxkdaftf" class="animable"></path><path d="M128.42,219.81c.39-.21-.54.35-.69.45a21.93,21.93,0,0,0-2.13,1.6,16.78,16.78,0,0,0-4.79,6.56,1.42,1.42,0,0,1-2.63-1.08,20.57,20.57,0,0,1,9.17-10.16c1.6-.89,2.65,1.76,1.07,2.63Z" style="fill: rgb(255, 255, 255); transform-origin: 123.638px 223.151px;" id="elcu1a4evfulo" class="animable"></path></g></g><path d="M105,190.44a2.55,2.55,0,0,1,1.82-1.65c1.68-.21,3.35,2.07,3.74,5.09s-.65,5.66-2.32,5.88c-.94.12-1.87-.57-2.59-1.71A46.65,46.65,0,0,1,105,190.44Z" style="fill: #514869; transform-origin: 107.821px 194.275px;" id="elr7na2y11en" class="animable"></path><g id="elrruj6ide2dc"><rect x="129.56" y="230.85" width="5.45" height="10.11" rx="1.62" style="fill: #514869; transform-origin: 132.285px 235.905px; transform: rotate(122.64deg);" class="animable" id="elr5yuz8zho1k"></rect></g><g id="el1vn6vunr8oq"><rect x="129.82" y="231.75" width="4.68" height="8.68" rx="1.62" style="fill: rgb(38, 50, 56); transform-origin: 132.16px 236.09px; transform: rotate(122.64deg);" class="animable" id="elbqbnvkay4f"></rect></g><path d="M139.89,239.56c-.74-1.08-.44-3.93-.27-5.23.71-5.46,8-1.91,8-1.91l3.71.36a2.78,2.78,0,0,1,2.33,2.74l.21,3.65a2.89,2.89,0,0,1-2.45,3.21l-3.24.22a5.63,5.63,0,0,1-2.74-.51S140.75,240.82,139.89,239.56Z" style="fill: #514869; transform-origin: 146.653px 236.949px;" id="elxs1t6gwefxl" class="animable"></path><g id="elo7am25qdbw"><path d="M139.89,239.56c-.74-1.08-.44-3.93-.27-5.23.71-5.46,8-1.91,8-1.91l3.71.36a2.78,2.78,0,0,1,2.33,2.74l.21,3.65a2.89,2.89,0,0,1-2.45,3.21l-3.24.22a5.63,5.63,0,0,1-2.74-.51S140.75,240.82,139.89,239.56Z" style="fill: rgb(255, 255, 255); opacity: 0.3; transform-origin: 146.653px 236.949px;" class="animable" id="el82eatcz24io"></path></g><path d="M167.25,284.68a73.41,73.41,0,0,1-21,17.13c-1.74,1-3.43-1.65-1.67-2.61a71.09,71.09,0,0,0,20.32-16.6c1.29-1.53,3.6.55,2.31,2.08Z" style="fill: #514869; transform-origin: 155.712px 292.048px;" id="elfunf65mpkdd" class="animable"></path><g id="ell7pj6z0g39"><g style="opacity: 0.3; transform-origin: 155.712px 292.048px;" class="animable" id="elvg598cg59wk"><path d="M167.25,284.68a73.41,73.41,0,0,1-21,17.13c-1.74,1-3.43-1.65-1.67-2.61a71.09,71.09,0,0,0,20.32-16.6c1.29-1.53,3.6.55,2.31,2.08Z" style="fill: rgb(255, 255, 255); transform-origin: 155.712px 292.048px;" id="elpy42w6t7obs" class="animable"></path></g></g><path d="M171.88,314.29a65.13,65.13,0,0,1-22.2-1.85c-1.78-.43-1.22-3.22.56-2.79a62.8,62.8,0,0,0,21.45,1.81c1.82-.2,2,2.63.19,2.83Z" style="fill: #514869; transform-origin: 160.871px 312.076px;" id="eldl8bl1vv5lp" class="animable"></path><g id="elm6dmgsz3p"><g style="opacity: 0.3; transform-origin: 160.871px 312.076px;" class="animable" id="elzqsuz27zc2"><path d="M171.88,314.29a65.13,65.13,0,0,1-22.2-1.85c-1.78-.43-1.22-3.22.56-2.79a62.8,62.8,0,0,0,21.45,1.81c1.82-.2,2,2.63.19,2.83Z" style="fill: rgb(255, 255, 255); transform-origin: 160.871px 312.076px;" id="el93a456qyej7" class="animable"></path></g></g><path d="M197.89,266a69.45,69.45,0,0,1-16.36,18.64c-1.43,1.14-3.38-.81-1.93-2a67.13,67.13,0,0,0,15.87-18.05,1.39,1.39,0,0,1,2.42,1.38Z" style="fill: #514869; transform-origin: 188.581px 274.436px;" id="eld80m3ynaw4o" class="animable"></path><g id="eltffj5vuljgh"><g style="opacity: 0.3; transform-origin: 188.581px 274.436px;" class="animable" id="elokf5w8l8t5k"><path d="M197.89,266a69.45,69.45,0,0,1-16.36,18.64c-1.43,1.14-3.38-.81-1.93-2a67.13,67.13,0,0,0,15.87-18.05,1.39,1.39,0,0,1,2.42,1.38Z" style="fill: rgb(255, 255, 255); transform-origin: 188.581px 274.436px;" id="eleh3tp52qjz8" class="animable"></path></g></g><path d="M210,294.46A67.69,67.69,0,0,1,188.08,297a1.35,1.35,0,1,1,.08-2.7,65.1,65.1,0,0,0,21.2-2.48c1.74-.53,2.4,2.07.66,2.61Z" style="fill: #514869; transform-origin: 198.905px 294.414px;" id="elprv0okdqjld" class="animable"></path><g id="el7djpqkjk1oe"><g style="opacity: 0.3; transform-origin: 198.905px 294.414px;" class="animable" id="elfabm2hm696v"><path d="M210,294.46A67.69,67.69,0,0,1,188.08,297a1.35,1.35,0,1,1,.08-2.7,65.1,65.1,0,0,0,21.2-2.48c1.74-.53,2.4,2.07.66,2.61Z" style="fill: rgb(255, 255, 255); transform-origin: 198.905px 294.414px;" id="elsagjkhjx4yj" class="animable"></path></g></g><path d="M98.72,254.61a6,6,0,1,1-7.31-4.31A6,6,0,0,1,98.72,254.61Z" style="fill: rgb(38, 50, 56); transform-origin: 92.9104px 256.109px;" id="elwpbcj5odlql" class="animable"></path><g id="elv8l2frbsksj"><rect x="89.61" y="252" width="35.51" height="5.9" rx="1.56" style="fill: #514869; transform-origin: 107.365px 254.95px; transform: rotate(-4.57deg);" class="animable" id="ele5qh0w9jad6"></rect></g><g id="elfdm9wu3b7e"><rect x="118.53" y="243.77" width="35.51" height="5.9" rx="1.56" style="fill: #514869; transform-origin: 136.285px 246.72px; transform: rotate(-4.57deg);" class="animable" id="elmjkx8qmue8q"></rect></g><g id="elibm1m1v303o"><rect x="89.61" y="252" width="35.51" height="5.9" rx="1.56" style="opacity: 0.3; transform-origin: 107.365px 254.95px; transform: rotate(-4.57deg);" class="animable" id="elc18msj4ryjo"></rect></g><g id="eltj5xwmi8tbg"><rect x="118.53" y="243.77" width="35.51" height="5.9" rx="1.56" style="opacity: 0.3; transform-origin: 136.285px 246.72px; transform: rotate(-4.57deg);" class="animable" id="el315oqg00a25"></rect></g><path d="M153.41,230.07a3.33,3.33,0,1,1-4-2.39A3.32,3.32,0,0,1,153.41,230.07Z" style="fill: rgb(38, 50, 56); transform-origin: 150.19px 230.916px;" id="elzwuixghkf5" class="animable"></path><path d="M130.37,143.42a20,20,0,0,1,7.64,1.85h-.65c-11.13,0-20.14,6.88-20.13,15.33s9,15.29,20.17,15.27a25.2,25.2,0,0,0,9.36-1.76,19.87,19.87,0,0,1-2.32,3.08,7.58,7.58,0,0,0-1.65,2.85l-26.38,0a7.8,7.8,0,0,0-1.69-2.88,20.16,20.16,0,0,1,15.65-33.77Z" style="fill: #514869; transform-origin: 128.089px 161.707px;" id="el7wpvebw1b77" class="animable"></path><g id="elav2lckkfc5c"><path d="M130.37,143.42a20,20,0,0,1,7.64,1.85h-.65c-11.13,0-20.14,6.88-20.13,15.33s9,15.29,20.17,15.27a25.2,25.2,0,0,0,9.36-1.76,19.87,19.87,0,0,1-2.32,3.08,7.58,7.58,0,0,0-1.65,2.85l-26.38,0a7.8,7.8,0,0,0-1.69-2.88,20.16,20.16,0,0,1,15.65-33.77Z" style="fill: rgb(255, 255, 255); opacity: 0.7; transform-origin: 128.089px 161.707px;" class="animable" id="el45v7l3xefds"></path></g><path d="M136.81,144.76a19.6,19.6,0,0,1,2.77,1.33q-1.1-.09-2.22-.09c-10.8,0-19.57,6.56-19.56,14.59s8.81,14.56,19.6,14.54a24.78,24.78,0,0,0,9.94-2,19.81,19.81,0,0,1-1.07,1.77,26.4,26.4,0,0,1-8.86,1.52c-11.51,0-20.84-7-20.86-15.79C116.54,152,125.56,145,136.81,144.76Z" style="fill: #514869; transform-origin: 131.945px 160.59px;" id="el33iga0unfy8" class="animable"></path><g id="el3hi1aup9n3t"><path d="M136.81,144.76a19.6,19.6,0,0,1,2.77,1.33q-1.1-.09-2.22-.09c-10.8,0-19.57,6.56-19.56,14.59s8.81,14.56,19.6,14.54a24.78,24.78,0,0,0,9.94-2,19.81,19.81,0,0,1-1.07,1.77,26.4,26.4,0,0,1-8.86,1.52c-11.51,0-20.84-7-20.86-15.79C116.54,152,125.56,145,136.81,144.76Z" style="opacity: 0.4; transform-origin: 131.945px 160.59px;" class="animable" id="elaxrafygqq1c"></path></g><g id="elbxhd996pniw"><path d="M136.85,151.27a13.88,13.88,0,0,0-3.6-1.6,21.18,21.18,0,0,1,5.15-1,17.33,17.33,0,0,1,3.29,2.61A30.1,30.1,0,0,0,136.85,151.27Z" style="fill: rgb(255, 255, 255); opacity: 0.6; transform-origin: 137.47px 149.975px;" class="animable" id="eljd9f6e0e1ce"></path></g><g id="elikp4esjnm4p"><path d="M138.46,152.45a29.26,29.26,0,0,1,4.47.24A17,17,0,0,1,144.26,172a20.73,20.73,0,0,1-4.52.5h-.1l.12-.15a13.76,13.76,0,0,0-1.3-19.87Z" style="fill: rgb(255, 255, 255); opacity: 0.6; transform-origin: 142.556px 162.471px;" class="animable" id="elgkgtt8my02f"></path></g><g id="elit9luh83k8r"><path d="M116.34,149.52h1a0,0,0,0,1,0,0v7.37a.52.52,0,0,1-.52.52h0a.51.51,0,0,1-.51-.51v-7.37A0,0,0,0,1,116.34,149.52Z" style="fill: rgb(38, 50, 56); transform-origin: 116.825px 153.465px; transform: rotate(179.91deg);" class="animable" id="el5dfqbmi39c7"></path></g><g id="elteuw4jm2d6"><path d="M116.34,149.52h1a0,0,0,0,1,0,0v7.37a.52.52,0,0,1-.52.52h0a.51.51,0,0,1-.51-.51v-7.37A0,0,0,0,1,116.34,149.52Z" style="fill: rgb(255, 255, 255); opacity: 0.4; transform-origin: 116.825px 153.465px; transform: rotate(179.91deg);" class="animable" id="elx0ss1oc7jt"></path></g><g id="eljsteposc5y"><path d="M114.18,137.4h1a0,0,0,0,1,0,0v19.49a.52.52,0,0,1-.52.52h0a.51.51,0,0,1-.51-.51V137.4a0,0,0,0,1,0,0Z" style="fill: rgb(38, 50, 56); transform-origin: 114.665px 147.405px; transform: rotate(179.91deg);" class="animable" id="ell35pcpk7ckj"></path></g><g id="el3fbxqccgdp"><path d="M114.18,137.4h1a0,0,0,0,1,0,0v19.49a.52.52,0,0,1-.52.52h0a.51.51,0,0,1-.51-.51V137.4a0,0,0,0,1,0,0Z" style="fill: rgb(255, 255, 255); opacity: 0.6; transform-origin: 114.665px 147.405px; transform: rotate(179.91deg);" class="animable" id="elh7gcoeu298m"></path></g><path d="M144.11,180.49l-.05-1.24a1.21,1.21,0,0,0-1.34-1.17,157.2,157.2,0,0,1-26.06.33,1.21,1.21,0,0,0-1.19.74l-.14.32A1.21,1.21,0,0,0,116,181c3.5,1.55,15.1,5.81,27.42.62A1.23,1.23,0,0,0,144.11,180.49Z" style="fill: #514869; transform-origin: 129.684px 181.096px;" id="el692cbto2ga" class="animable"></path><path d="M116.9,166.58a5.11,5.11,0,1,0,.89-10.19l-1.59-.14a5.12,5.12,0,0,0-.88,10.2Z" style="fill: rgb(38, 50, 56); transform-origin: 116.601px 161.419px;" id="elcvq14hazqw6" class="animable"></path><g id="el06kvwssq56fw"><path d="M116.9,166.58a5.11,5.11,0,1,0,.89-10.19l-1.59-.14a5.12,5.12,0,0,0-.88,10.2Z" style="fill: rgb(255, 255, 255); opacity: 0.3; transform-origin: 116.601px 161.419px;" class="animable" id="el4qdxmc7rakq"></path></g><g id="elsmcwtg6a7l"><path d="M120.86,161.79a5.12,5.12,0,1,1-4.66-5.54A5.12,5.12,0,0,1,120.86,161.79Z" style="fill: rgb(255, 255, 255); opacity: 0.3; transform-origin: 115.759px 161.351px;" class="animable" id="eldrydsov2o2w"></path></g><polygon points="131.83 178.1 132.09 177.31 118.19 172.72 115.53 161.25 114.72 161.44 117.48 173.36 131.83 178.1" style="fill: rgb(38, 50, 56); transform-origin: 123.405px 169.675px;" id="elrl1d5vrsrnk" class="animable"></polygon><g id="eld18ccr525ys"><g style="opacity: 0.4; transform-origin: 123.405px 169.675px;" class="animable" id="elof1yq3jixpj"><polygon points="131.83 178.1 132.09 177.31 118.19 172.72 115.53 161.25 114.72 161.44 117.48 173.36 131.83 178.1" style="fill: rgb(255, 255, 255); transform-origin: 123.405px 169.675px;" id="elhkxud65r2vc" class="animable"></polygon></g></g><path d="M119,161.63a3.25,3.25,0,1,1-3-3.52A3.25,3.25,0,0,1,119,161.63Z" style="fill: #514869; transform-origin: 115.762px 161.351px;" id="elatosi5odl6u" class="animable"></path><path d="M118.37,161.63a3.25,3.25,0,1,1-3-3.52A3.26,3.26,0,0,1,118.37,161.63Z" style="fill: #514869; transform-origin: 115.132px 161.351px;" id="eli12jwjy7km" class="animable"></path><g id="elfbbytn3tfco"><path d="M118.37,161.63a3.25,3.25,0,1,1-3-3.52A3.26,3.26,0,0,1,118.37,161.63Z" style="fill: rgb(255, 255, 255); opacity: 0.5; transform-origin: 115.132px 161.351px;" class="animable" id="elti7a2o67i2f"></path></g><path d="M119.37,173.15a1.3,1.3,0,0,1-1.4,1.18,1.29,1.29,0,1,1,1.4-1.18Z" style="fill: #514869; transform-origin: 118.084px 173.045px;" id="el95y3tux17ar" class="animable"></path><path d="M119.12,173.15a1.29,1.29,0,1,1-1.18-1.4A1.3,1.3,0,0,1,119.12,173.15Z" style="fill: #514869; transform-origin: 117.835px 173.036px;" id="elpzc8q9ixpl" class="animable"></path><g id="el6cf31wlgoeu"><path d="M119.12,173.15a1.29,1.29,0,1,1-1.18-1.4A1.3,1.3,0,0,1,119.12,173.15Z" style="fill: rgb(255, 255, 255); opacity: 0.3; transform-origin: 117.835px 173.036px;" class="animable" id="ellgfdno9bts"></path></g><path d="M132.38,179h5.71a1.3,1.3,0,0,0,1.29-1.3v0a1.3,1.3,0,0,0-1.3-1.29h-5.7a1.3,1.3,0,0,0-1.3,1.29v0A1.3,1.3,0,0,0,132.38,179Z" style="fill: #514869; transform-origin: 135.23px 177.705px;" id="eln78kbuu489o" class="animable"></path><path d="M133.21,179h5.71a1.31,1.31,0,0,0,1.3-1.3v0a1.3,1.3,0,0,0-1.3-1.29h-5.71a1.31,1.31,0,0,0-1.3,1.3v0A1.3,1.3,0,0,0,133.21,179Z" style="fill: #514869; transform-origin: 136.065px 177.705px;" id="elcp64tob1fec" class="animable"></path><g id="elxlw5jq4vtho"><path d="M133.21,179h5.71a1.31,1.31,0,0,0,1.3-1.3v0a1.3,1.3,0,0,0-1.3-1.29h-5.71a1.31,1.31,0,0,0-1.3,1.3v0A1.3,1.3,0,0,0,133.21,179Z" style="fill: rgb(255, 255, 255); opacity: 0.3; transform-origin: 136.065px 177.705px;" class="animable" id="elqle5u8n9l4i"></path></g></g><defs>     <filter id="active" height="200%">         <feMorphology in="SourceAlpha" result="DILATED" operator="dilate" radius="2"></feMorphology>                <feFlood flood-color="#32DFEC" flood-opacity="1" result="PINK"></feFlood>        <feComposite in="PINK" in2="DILATED" operator="in" result="OUTLINE"></feComposite>        <feMerge>            <feMergeNode in="OUTLINE"></feMergeNode>            <feMergeNode in="SourceGraphic"></feMergeNode>        </feMerge>    </filter>    <filter id="hover" height="200%">        <feMorphology in="SourceAlpha" result="DILATED" operator="dilate" radius="2"></feMorphology>                <feFlood flood-color="#ff0000" flood-opacity="0.5" result="PINK"></feFlood>        <feComposite in="PINK" in2="DILATED" operator="in" result="OUTLINE"></feComposite>        <feMerge>            <feMergeNode in="OUTLINE"></feMergeNode>            <feMergeNode in="SourceGraphic"></feMergeNode>        </feMerge>            <feColorMatrix type="matrix" values="0   0   0   0   0                0   1   0   0   0                0   0   0   0   0                0   0   0   1   0 "></feColorMatrix>    </filter></defs></svg>